<svg width="144" height="75" viewBox="0 0 144 75" fill="none" xmlns="http://www.w3.org/2000/svg">
<rect x="0.5" y="3.5" width="143" height="71" rx="7.5" stroke="#0096FF"/>
<path d="M32.2852 43V32.377H39.1484V33.7168H33.8438V36.8477H38.6289V38.1602H33.8438V41.6602H39.2715V43H32.2852ZM39.8594 35.2891H41.5137L42.8398 39.5273C43.1406 40.6211 43.3411 41.3503 43.4414 41.7148H43.4688C43.5326 41.4779 43.6374 41.1087 43.7832 40.6074C43.9382 40.097 44.043 39.737 44.0977 39.5273L45.4102 35.2891H47.0645L44.3301 43H42.5938L39.8594 35.2891ZM47.502 39.1035C47.502 37.8822 47.8346 36.9023 48.5 36.1641C49.1745 35.4167 50.0267 35.043 51.0566 35.043C52.0866 35.043 52.9206 35.4121 53.5586 36.1504C54.2057 36.8887 54.5293 37.8411 54.5293 39.0078C54.5293 39.026 54.5156 39.2402 54.4883 39.6504H49.0195C49.0195 40.2975 49.2064 40.8535 49.5801 41.3184C49.9538 41.7832 50.4733 42.0156 51.1387 42.0156C51.5853 42.0156 51.9818 41.9062 52.3281 41.6875C52.6745 41.4688 52.9388 41.1862 53.1211 40.8398L54.3789 41.2637C54.1328 41.8379 53.7318 42.3118 53.1758 42.6855C52.6289 43.0592 51.9453 43.2461 51.125 43.2461C50.0495 43.2461 49.1745 42.8724 48.5 42.125C47.8346 41.3685 47.502 40.3613 47.502 39.1035ZM49.0469 38.5703H52.998C52.998 37.9232 52.8249 37.3763 52.4785 36.9297C52.1322 36.4831 51.6582 36.2598 51.0566 36.2598C50.446 36.2598 49.9629 36.4876 49.6074 36.9434C49.252 37.3991 49.0651 37.9414 49.0469 38.5703ZM56.0195 43V35.2891H57.4824V36.3691H57.4961C57.6146 36.0592 57.8698 35.763 58.2617 35.4805C58.6628 35.1888 59.1549 35.043 59.7383 35.043C60.4857 35.043 61.0872 35.2754 61.543 35.7402C61.9987 36.2051 62.2266 36.9707 62.2266 38.0371V43H60.7227V38.2422C60.7227 36.9661 60.2806 36.3281 59.3965 36.3281C58.877 36.3281 58.4349 36.5423 58.0703 36.9707C57.7148 37.39 57.5371 37.9004 57.5371 38.502V43H56.0195ZM63.3203 36.5742V35.2891H64.5645V32.9512H66.0684V35.2891H67.9141V36.5742H66.0684V40.5938C66.0684 40.9948 66.1458 41.2819 66.3008 41.4551C66.4648 41.6283 66.7109 41.7148 67.0391 41.7148H67.9141V43H66.8477C65.3255 43 64.5645 42.2344 64.5645 40.7031V36.5742H63.3203ZM68.7207 41.4141L69.8145 40.7852C70.3704 41.6055 71.0859 42.0156 71.9609 42.0156C72.4258 42.0156 72.7995 41.9245 73.082 41.7422C73.3646 41.5508 73.5059 41.3001 73.5059 40.9902C73.5059 40.5892 73.2051 40.2611 72.6035 40.0059C72.4121 39.9147 71.9792 39.7643 71.3047 39.5547C70.9857 39.4544 70.7077 39.3542 70.4707 39.2539C70.2428 39.1445 70.0059 39.0033 69.7598 38.8301C69.5228 38.6478 69.3405 38.4245 69.2129 38.1602C69.0853 37.8958 69.0215 37.5951 69.0215 37.2578C69.0215 36.5924 69.2995 36.0592 69.8555 35.6582C70.4115 35.248 71.1178 35.043 71.9746 35.043C72.6035 35.043 73.1914 35.2116 73.7383 35.5488C74.2852 35.8861 74.6908 36.3008 74.9551 36.793L73.957 37.4082C73.4375 36.6517 72.7767 36.2734 71.9746 36.2734C71.5098 36.2734 71.1543 36.3691 70.9082 36.5605C70.6621 36.7428 70.5391 36.9844 70.5391 37.2852C70.5391 37.4492 70.5846 37.5996 70.6758 37.7363C70.7669 37.873 70.8581 37.9824 70.9492 38.0645C71.0495 38.1465 71.2135 38.2376 71.4414 38.3379C71.6784 38.429 71.8516 38.4928 71.9609 38.5293C72.0794 38.5658 72.2799 38.6296 72.5625 38.7207C74.2214 39.2311 75.0508 39.9922 75.0508 41.0039C75.0508 41.6328 74.7819 42.166 74.2441 42.6035C73.7064 43.0319 72.9544 43.2461 71.9883 43.2461C71.2682 43.2461 70.6211 43.082 70.0469 42.7539C69.4727 42.4258 69.0306 41.9792 68.7207 41.4141Z" fill="black"/>
<g clip-path="url(#clip0_24_290)">
<path d="M127.942 44.469H100.026V72.5877H127.942V44.469Z" fill="#4D6F80"/>
<path d="M109.81 32.5123C109.716 32.3868 109.623 32.2926 109.467 32.2299C107.691 31.8847 105.884 31.4767 104.108 31.1315C103.204 30.9746 101.179 29.5937 100.681 32.324C100.12 35.4623 102.301 35.3995 102.986 35.525C104.046 35.7133 105.074 35.8389 106.133 35.7761C106.787 35.7447 107.411 35.5878 108.065 35.3367C108.626 35.1171 109.311 34.9288 109.716 34.0501C109.965 33.5479 110.028 32.8889 109.81 32.5123Z" fill="#FFBE9D"/>
<path d="M108.813 32.8575C108.345 33.4537 107.909 34.2069 108.719 34.6149C108.969 34.7404 109.249 34.6777 109.467 34.6149C109.716 34.5521 109.966 34.4894 110.215 34.5835C110.838 34.8032 111.212 35.8388 111.804 36.2468C112.24 36.5292 112.707 36.4351 113.05 36.1526C113.393 35.8702 113.642 35.4308 113.86 34.9915C113.985 34.7718 114.078 34.5208 114.016 34.2069C113.954 34.0186 113.829 33.8617 113.735 33.7362C113.05 32.9516 112.365 32.1984 111.586 31.6022C111.305 31.3825 111.025 31.1942 110.744 31.1314C110.184 31.0373 109.779 31.5394 109.467 32.0729C109.405 32.1984 109.093 32.5123 108.813 32.8575Z" fill="#FFBE9D"/>
<path d="M117.256 32.5123C117.349 32.3868 117.443 32.2926 117.599 32.2299C119.375 31.8847 121.182 31.4767 122.958 31.1315C123.861 30.9746 125.886 29.5937 126.385 32.324C126.946 35.4623 124.765 35.3995 124.079 35.525C123.02 35.7133 121.992 35.8389 120.932 35.7761C120.278 35.7447 119.655 35.5878 119.001 35.3367C118.44 35.1171 117.754 34.9288 117.349 34.0501C117.1 33.5479 117.038 32.8889 117.256 32.5123Z" fill="#FFBE9D"/>
<path d="M118.253 32.8575C118.72 33.4537 119.157 34.2069 118.346 34.6149C118.097 34.7404 117.817 34.6777 117.599 34.6149C117.349 34.5521 117.1 34.4894 116.851 34.5835C116.228 34.8032 115.854 35.8388 115.262 36.2468C114.826 36.5292 114.358 36.4351 114.016 36.1526C113.673 35.8702 113.424 35.4308 113.206 34.9915C113.081 34.7718 112.988 34.5208 113.05 34.2069C113.112 34.0186 113.237 33.8617 113.33 33.7362C114.016 32.9516 114.701 32.1984 115.48 31.6022C115.76 31.3825 116.041 31.1942 116.321 31.1314C116.882 31.0373 117.287 31.5394 117.599 32.0729C117.692 32.1984 117.973 32.5123 118.253 32.8575Z" fill="#FFBE9D"/>
<path d="M125.949 36.3095H123.705L122.397 31.5708L123.113 31.3825L121.898 29.5309L121.119 36.2781H106.943L106.164 29.4054L104.887 31.3511L105.604 31.5394L104.295 36.2781H102.052C99.6527 36.2781 97.6275 33.6106 98.7491 31.6649L99.6838 30.0644C100.525 28.0559 101.429 25.9533 102.394 23.6938C102.831 22.6581 103.391 21.5911 103.796 20.43C104.108 19.5513 104.482 18.3273 105.292 17.888C106.258 17.3545 107.535 17.1348 108.595 16.7268C112.115 15.4088 115.979 15.4088 119.468 16.7268C120.403 17.072 121.306 17.4172 122.21 17.7625C123.02 18.0763 123.207 18.296 123.612 19.2061C125.388 23.1289 126.883 26.7692 128.285 30.033L129.22 31.6335C130.342 33.642 128.348 36.3095 125.949 36.3095Z" fill="white"/>
<path d="M110.402 11.4546C109.716 11.3291 109.342 10.4817 109.654 9.85407C108.968 9.47748 108.657 8.47324 109.031 7.75144C108.376 6.99826 108.501 5.71158 109.249 5.02116C108.813 4.01692 109.498 2.66747 110.589 2.41641C110.744 1.5377 111.586 0.815906 112.458 0.815906C112.801 0.313786 113.393 -3.95274e-05 114.016 -3.95274e-05C114.608 -0.0314221 115.2 0.282403 115.574 0.753141C116.29 0.690376 117.007 1.1925 117.131 1.91429C117.443 1.75738 117.817 1.82015 118.066 2.00844C118.315 2.22812 118.44 2.60471 118.346 2.91854C118.72 2.94992 119.094 3.20098 119.25 3.54619C119.406 3.89139 119.344 4.33075 119.125 4.64457C119.624 5.05255 119.624 5.93126 119.094 6.33923C119.468 6.87273 119.125 7.75144 118.502 7.90836C119.032 8.44186 118.752 9.54025 118.035 9.79131C118.471 10.5759 118.066 11.7056 117.225 12.0508C116.882 12.2078 116.508 12.2078 116.134 12.2391C114.888 12.3019 113.611 12.3333 112.364 12.4588C111.991 12.4902 111.679 12.5216 111.305 12.3961C111.087 12.3333 110.838 12.2391 110.682 12.0822C110.589 12.0195 110.37 11.4546 110.402 11.4546Z" fill="#222221"/>
<path d="M115.729 17.637C115.262 17.8253 114.732 17.8567 114.203 17.8253C113.673 17.8567 113.143 17.8253 112.676 17.637C111.399 17.1349 111.586 16.1306 111.71 15.0322C111.741 14.5615 111.773 14.0594 111.804 13.5886C111.804 13.2434 111.804 12.9296 111.804 12.5844C111.804 12.3961 111.804 12.2392 111.804 12.0509C111.804 11.5174 111.804 11.1408 111.866 11.0466C112.115 10.7642 112.614 10.827 113.019 10.7642C113.424 10.7014 113.829 10.7014 114.234 10.7956C114.639 10.7014 115.044 10.7014 115.449 10.7642C115.854 10.827 116.384 10.7642 116.602 11.0466C116.695 11.1408 116.695 11.5488 116.664 12.0509C116.664 12.2392 116.664 12.3961 116.664 12.5844C116.664 12.8668 116.664 13.1807 116.664 13.4945C116.664 13.9966 116.695 14.5301 116.758 15.0322C116.82 16.1306 117.038 17.1035 115.729 17.637Z" fill="#995C3D"/>
<path d="M116.633 12.0195C116.633 12.2078 116.633 12.3647 116.633 12.553C116.633 12.8354 116.633 13.1493 116.633 13.4631C116.259 14.1221 115.698 14.6243 115.044 14.7498C114.733 14.8753 114.452 14.9067 114.172 14.8753C113.891 14.9067 113.611 14.8753 113.299 14.7498C112.707 14.6556 112.147 14.1849 111.773 13.5886C111.773 13.2434 111.773 12.9296 111.773 12.5844C111.773 12.3961 111.773 12.2392 111.773 12.0509C111.773 11.5174 111.773 11.1408 111.835 11.0466C112.084 10.7642 112.583 10.827 112.988 10.7642C113.393 10.7014 113.798 10.7014 114.203 10.7956C114.608 10.7014 115.013 10.7014 115.418 10.7642C115.823 10.827 116.353 10.7642 116.571 11.0466C116.664 11.1094 116.664 11.5174 116.633 12.0195Z" fill="#222221"/>
<path d="M117.724 10.7328C117.412 11.3605 117.069 12.0509 116.664 12.6472C116.322 13.3062 115.73 13.8397 115.075 13.9339C114.764 14.0594 114.452 14.0908 114.203 14.0594C113.922 14.0908 113.642 14.0594 113.33 13.9339C112.676 13.8083 112.115 13.3062 111.742 12.6472C111.305 12.0509 110.963 11.3605 110.682 10.7328C110.059 9.44616 109.654 8.00256 109.748 6.55896C109.81 5.64887 110.09 4.77016 110.526 3.9856C111.274 2.51062 112.707 1.44361 114.172 1.53776C115.636 1.47499 117.069 2.542 117.879 3.9856C118.316 4.77016 118.596 5.64887 118.658 6.55896C118.752 8.00256 118.316 9.44616 117.724 10.7328Z" fill="#995C3D"/>
<path d="M108.844 7.68873C108.501 8.22223 108.532 8.94403 108.844 9.47753C109.062 9.85412 109.716 10.5132 110.246 10.4818C110.776 10.419 110.994 9.60306 111.025 9.19509C111.056 8.69297 111.025 7.93979 110.62 7.53181C110.152 7.02969 109.405 7.02969 108.969 7.5632C108.906 7.59458 108.875 7.65734 108.844 7.68873Z" fill="#995C3D"/>
<path d="M119.499 7.68873C119.842 8.22223 119.811 8.94403 119.499 9.47753C119.281 9.85412 118.627 10.5132 118.097 10.4818C117.568 10.419 117.35 9.60306 117.319 9.19509C117.287 8.69297 117.319 7.93979 117.724 7.53181C118.191 7.02969 118.939 7.02969 119.375 7.5632C119.437 7.59458 119.468 7.65734 119.499 7.68873Z" fill="#995C3D"/>
<path d="M109.498 9.57166C109.467 9.47751 109.654 9.44613 109.716 9.41474C109.841 9.38336 109.934 9.38336 110.059 9.41474C109.872 9.03815 109.623 8.72433 109.124 8.69295V8.66156C109.374 8.53603 109.654 8.63018 109.872 8.78709C110.184 9.00677 110.308 9.41474 110.402 9.75995C110.433 9.88548 110.277 9.94825 110.215 9.82272C110.152 9.69719 110.028 9.60304 109.903 9.54027C109.779 9.50889 109.654 9.54027 109.498 9.57166Z" fill="#222221"/>
<path d="M118.783 9.57166C118.814 9.47751 118.627 9.44613 118.565 9.41474C118.44 9.38336 118.347 9.38336 118.222 9.41474C118.409 9.03815 118.658 8.72433 119.157 8.69295V8.66156C118.907 8.53603 118.627 8.63018 118.409 8.78709C118.097 9.00677 117.973 9.41474 117.879 9.75995C117.848 9.88548 118.004 9.94825 118.066 9.82272C118.129 9.69719 118.253 9.60304 118.378 9.54027C118.534 9.50889 118.658 9.54027 118.783 9.57166Z" fill="#222221"/>
<path d="M112.053 7.84561C112.115 7.75146 112.209 7.6887 112.333 7.72008C112.489 7.75146 112.552 7.87699 112.583 8.00252C112.676 8.28496 112.707 8.72432 112.583 8.97538C112.52 9.10091 112.365 9.19506 112.178 9.16367C111.96 9.06953 111.897 8.72432 111.928 8.53602C111.96 8.34773 111.96 8.0339 112.053 7.84561Z" fill="#222221"/>
<path d="M115.948 7.84561C116.01 7.75146 116.103 7.6887 116.228 7.72008C116.384 7.75146 116.446 7.87699 116.477 8.00252C116.571 8.28496 116.602 8.72432 116.477 8.97538C116.415 9.10091 116.259 9.19506 116.072 9.16367C115.854 9.06953 115.792 8.72432 115.823 8.53602C115.823 8.34773 115.823 8.0339 115.948 7.84561Z" fill="#222221"/>
<path d="M114.234 11.0153C114.203 10.9211 114.328 10.7642 114.39 10.7014C114.421 10.6387 114.483 10.6073 114.515 10.5445C114.577 10.4817 114.639 10.419 114.701 10.3562L114.733 10.3248C114.733 10.2935 114.733 10.2935 114.701 10.2621C114.608 10.1679 114.546 10.1052 114.483 9.97963C114.421 9.88548 114.359 9.79133 114.328 9.6658C114.078 9.16368 113.954 8.56741 114.109 8.00253C114.172 7.81423 114.265 7.46903 114.452 7.37488C114.483 7.65732 114.234 7.97115 114.203 8.25359C114.109 8.88124 114.452 9.54027 114.92 9.91686C114.982 9.94825 115.044 10.011 115.075 10.0738C115.418 10.4817 114.483 10.8897 114.234 11.0153Z" fill="#222221"/>
<path d="M113.05 11.7371C113.393 11.9254 113.673 12.145 114.078 12.1764C114.546 12.2078 115.044 12.0823 115.449 11.8626C115.48 11.8626 115.48 11.894 115.48 11.894C115.075 12.2706 114.639 12.4903 114.078 12.4589C113.642 12.4275 113.175 12.2392 112.894 11.8626C112.863 11.7998 112.988 11.6743 113.05 11.7371Z" fill="#222221"/>
<path d="M110.9 6.52759C111.274 6.05686 111.742 5.77441 112.302 5.77441C112.863 5.77441 113.393 5.93133 113.549 6.46483C113.549 6.49621 113.549 6.49621 113.517 6.49621C113.144 6.40206 112.832 6.21377 112.458 6.18239C111.96 6.11962 111.399 6.30792 110.963 6.55898C110.9 6.62174 110.838 6.55898 110.9 6.52759Z" fill="#222221"/>
<path d="M117.505 6.52759C117.132 6.05686 116.664 5.77441 116.103 5.77441C115.543 5.77441 115.013 5.93133 114.857 6.46483C114.857 6.49621 114.857 6.49621 114.888 6.49621C115.262 6.40206 115.574 6.21377 115.948 6.18239C116.446 6.11962 117.007 6.30792 117.443 6.55898C117.505 6.62174 117.568 6.55898 117.505 6.52759Z" fill="#222221"/>
<path d="M110.152 5.93124C110.526 5.83709 110.807 5.42912 110.744 5.05253C110.744 5.11529 111.43 4.51902 111.461 4.39349C111.586 4.04828 111.523 3.60893 111.368 3.2951C111.617 3.60893 112.084 3.60893 112.427 3.42063C112.77 3.23234 112.988 2.88713 113.175 2.57331C113.299 3.01266 113.798 3.2951 114.265 3.26372C114.732 3.26372 115.169 3.04404 115.574 2.82437C115.511 2.85575 115.636 3.35787 115.667 3.42063C115.761 3.67169 115.948 3.89137 116.197 3.98552C116.54 4.11105 116.945 4.07967 117.287 3.98552C117.069 4.0169 117.194 4.61317 117.256 4.70732C117.381 4.95838 117.661 5.14667 117.942 5.24082C117.848 5.55465 117.973 5.93124 118.253 6.08815C118.16 6.33921 118.066 6.65303 118.16 6.90409C118.253 7.18654 118.658 7.31207 118.814 7.09239C118.876 6.99824 118.876 6.9041 118.876 6.80995C118.97 5.4605 118.534 4.04828 117.661 3.01266C116.82 1.94566 115.511 1.28662 114.172 1.25524C112.801 1.19247 111.461 1.78874 110.62 2.82437C109.872 3.73446 109.529 4.927 109.405 6.08815C109.374 6.43336 109.218 7.21792 109.747 7.15515C110.371 7.12377 110.277 5.89985 110.152 5.93124Z" fill="#222221"/>
<path d="M114.109 18.3587C113.985 18.1704 113.891 17.9507 113.891 17.731C113.922 17.4172 114.14 17.1975 114.39 16.9779C114.826 16.5699 115.262 16.1619 115.667 15.7853C116.041 15.4401 116.508 15.0321 117.038 15.1263C117.474 15.2204 117.786 15.6284 117.848 16.0678C117.91 16.5071 117.755 16.9465 117.599 17.3545C117.287 18.0763 116.789 19.4257 116.072 19.8964C115.262 20.4613 114.421 18.9236 114.109 18.3587Z" fill="#B8D6E6"/>
<path d="M113.954 18.3587C114.078 18.1704 114.172 17.9507 114.172 17.731C114.14 17.4172 113.922 17.1975 113.673 16.9779C113.237 16.5699 112.801 16.1619 112.396 15.7853C112.022 15.4401 111.554 15.0321 111.025 15.1263C110.589 15.2204 110.277 15.6284 110.215 16.0678C110.152 16.5071 110.308 16.9465 110.464 17.3545C110.776 18.0763 111.274 19.4257 111.991 19.8964C112.801 20.4613 113.642 18.9236 113.954 18.3587Z" fill="#B8D6E6"/>
<path d="M121.742 69.5436H119.188C118.377 69.5436 117.661 70.1085 117.505 70.9244L117.287 71.9286C117.162 72.4935 117.599 73.0584 118.191 73.0584H123.331C124.079 73.0584 124.515 72.1797 124.079 71.5834L123.144 70.2654C122.802 69.826 122.272 69.5436 121.742 69.5436Z" fill="#222221"/>
<path d="M106.258 69.5436H108.812C109.623 69.5436 110.339 70.1085 110.495 70.9244L110.713 71.9286C110.838 72.4935 110.401 73.0584 109.809 73.0584H104.669C103.921 73.0584 103.485 72.1797 103.921 71.5834L104.856 70.2654C105.198 69.826 105.697 69.5436 106.258 69.5436Z" fill="#222221"/>
<path d="M129.781 47.2934C128.348 54.072 125.076 60.1602 124.952 70.1713C122.21 69.8888 118.845 70.1085 116.726 70.2027C118.066 64.4596 119.655 55.7039 120.745 49.8982C120.559 49.804 120.403 49.7099 120.216 49.6471C118.876 48.9881 117.505 48.4232 116.103 47.9211C115.449 47.7014 114.763 47.3876 114.078 47.2934C114.047 47.2934 114.016 47.2934 113.985 47.2934C113.953 47.2934 113.922 47.2934 113.891 47.2934C113.206 47.3876 112.52 47.7014 111.866 47.9211C110.464 48.4232 109.093 49.0194 107.753 49.6471C107.566 49.7412 107.411 49.8354 107.224 49.8982C108.314 55.7039 109.903 64.4283 111.243 70.2027C109.124 70.1085 105.759 69.8888 103.017 70.1713C102.893 60.1602 99.6214 54.072 98.1882 47.2934C98.0636 46.7599 98.2194 46.195 98.5933 45.7557C99.7149 44.5004 100.93 43.3078 102.239 42.1781C103.391 41.1738 104.638 40.2323 105.946 39.385C108.594 39.6988 111.274 39.8244 113.922 39.8244C116.602 39.8244 119.25 39.6988 121.898 39.385C123.207 40.2637 124.453 41.1738 125.606 42.1781C126.914 43.3078 128.13 44.5004 129.251 45.7557C129.719 46.1636 129.874 46.7285 129.781 47.2934Z" fill="#34444D"/>
<path d="M102.301 42.1781C103.454 41.1738 104.7 40.2323 106.008 39.385C108.657 39.6988 111.336 39.8244 113.984 39.8244C116.664 39.8244 119.312 39.6988 121.96 39.385C123.269 40.2637 124.515 41.1738 125.668 42.1781H102.301Z" fill="#222221"/>
<path d="M137.258 38.9143H134.921V74H137.258V38.9143Z" fill="#6E6E6E"/>
<path d="M93.0784 38.9143H90.7417V74H93.0784V38.9143Z" fill="#6E6E6E"/>
<path d="M93.0784 38.9143H90.7417V42.1781H93.0784V38.9143Z" fill="#222221"/>
<path d="M137.258 38.9143H134.922V42.1781H137.258V38.9143Z" fill="#222221"/>
<path d="M140 35.933H88V39.8558H140V35.933Z" fill="#6E6E6E"/>
<path d="M124.235 35.9329H103.765L102.581 22.4698C102.55 22.0932 102.83 21.7794 103.204 21.7794H124.796C125.17 21.7794 125.45 22.0932 125.419 22.4698L124.235 35.9329Z" fill="#E8505B"/>
<path d="M113.985 31.8532C112.645 31.8532 111.492 31.0372 111.243 29.9074C111.087 29.2798 111.243 28.6208 111.679 28.0873C112.209 27.4282 113.05 27.0516 113.985 27.0516C114.919 27.0516 115.792 27.4282 116.29 28.0873C116.695 28.6208 116.882 29.2798 116.726 29.9074C116.508 31.0372 115.324 31.8532 113.985 31.8532Z" fill="white"/>
<path d="M116.384 29.8447C116.165 30.8175 115.106 31.508 113.985 31.508C112.863 31.508 111.804 30.8489 111.585 29.8447C111.305 28.6208 112.364 27.4282 113.985 27.4282C115.636 27.4282 116.664 28.6208 116.384 29.8447Z" fill="white"/>
</g>
<defs>
<clipPath id="clip0_24_290">
<rect width="52" height="74" fill="white" transform="translate(88)"/>
</clipPath>
</defs>
</svg>
