<svg width="144" height="89" viewBox="0 0 144 89" fill="none" xmlns="http://www.w3.org/2000/svg">
<rect x="0.5" y="17.5" width="143" height="71" rx="7.5" stroke="#0096FF"/>
<path d="M56.1367 55.1133L57.4629 54.5938C57.5814 54.9766 57.7728 55.291 58.0371 55.5371C58.3105 55.7832 58.6341 55.9062 59.0078 55.9062C60.0013 55.9062 60.498 55.2044 60.498 53.8008V46.377H62.0566V54.0059C62.0566 55.054 61.7969 55.8561 61.2773 56.4121C60.7578 56.9681 60.015 57.2461 59.0488 57.2461C58.265 57.2461 57.627 57.041 57.1348 56.6309C56.6517 56.2207 56.319 55.7148 56.1367 55.1133ZM65.2695 53.1445C65.2695 54.0651 65.4655 54.7669 65.8574 55.25C66.2493 55.7331 66.7188 55.9746 67.2656 55.9746C67.8034 55.9746 68.2682 55.7331 68.6602 55.25C69.0612 54.7669 69.2617 54.0651 69.2617 53.1445C69.2617 52.2148 69.0612 51.513 68.6602 51.0391C68.2682 50.5651 67.8034 50.3281 67.2656 50.3281C66.7279 50.3281 66.2585 50.5651 65.8574 51.0391C65.4655 51.513 65.2695 52.2148 65.2695 53.1445ZM63.7383 53.1445C63.7383 52.3971 63.8568 51.7227 64.0938 51.1211C64.3398 50.5195 64.7363 50.0228 65.2832 49.6309C65.8301 49.2389 66.4909 49.043 67.2656 49.043C68.4049 49.043 69.2754 49.4395 69.877 50.2324C70.4876 51.0163 70.793 51.987 70.793 53.1445C70.793 53.6185 70.7337 54.0833 70.6152 54.5391C70.4967 54.9857 70.3053 55.4186 70.041 55.8379C69.7858 56.2572 69.4167 56.599 68.9336 56.8633C68.4596 57.1185 67.9036 57.2461 67.2656 57.2461C66.6276 57.2461 66.0716 57.123 65.5977 56.877C65.1237 56.6217 64.7546 56.2891 64.4902 55.8789C64.235 55.4596 64.0436 55.0221 63.916 54.5664C63.7975 54.1107 63.7383 53.6367 63.7383 53.1445ZM72.3926 57V46.0078H73.8828V50.3145C74.0651 49.9772 74.3385 49.681 74.7031 49.4258C75.0677 49.1706 75.4915 49.043 75.9746 49.043C76.9225 49.043 77.7018 49.4076 78.3125 50.1367C78.9323 50.8659 79.2422 51.8639 79.2422 53.1309C79.2422 53.8418 79.1419 54.4753 78.9414 55.0312C78.7409 55.5781 78.4766 56.0065 78.1484 56.3164C77.8294 56.6263 77.4831 56.8587 77.1094 57.0137C76.7448 57.1686 76.3711 57.2461 75.9883 57.2461C75.5052 57.2461 75.0723 57.1139 74.6895 56.8496C74.3066 56.5853 74.0286 56.2663 73.8555 55.8926V57H72.3926ZM73.8555 53.1309C73.8555 54.0059 74.0332 54.6986 74.3887 55.209C74.7533 55.7194 75.2135 55.9746 75.7695 55.9746C76.3346 55.9746 76.7949 55.7285 77.1504 55.2363C77.515 54.735 77.6973 54.0332 77.6973 53.1309C77.6973 52.265 77.5195 51.5814 77.1641 51.0801C76.8177 50.5788 76.3529 50.3281 75.7695 50.3281C75.2044 50.3281 74.7441 50.5833 74.3887 51.0938C74.0332 51.6042 73.8555 52.2832 73.8555 53.1309ZM80.1582 55.4141L81.252 54.7852C81.8079 55.6055 82.5234 56.0156 83.3984 56.0156C83.8633 56.0156 84.237 55.9245 84.5195 55.7422C84.8021 55.5508 84.9434 55.3001 84.9434 54.9902C84.9434 54.5892 84.6426 54.2611 84.041 54.0059C83.8496 53.9147 83.4167 53.7643 82.7422 53.5547C82.4232 53.4544 82.1452 53.3542 81.9082 53.2539C81.6803 53.1445 81.4434 53.0033 81.1973 52.8301C80.9603 52.6478 80.778 52.4245 80.6504 52.1602C80.5228 51.8958 80.459 51.5951 80.459 51.2578C80.459 50.5924 80.737 50.0592 81.293 49.6582C81.849 49.248 82.5553 49.043 83.4121 49.043C84.041 49.043 84.6289 49.2116 85.1758 49.5488C85.7227 49.8861 86.1283 50.3008 86.3926 50.793L85.3945 51.4082C84.875 50.6517 84.2142 50.2734 83.4121 50.2734C82.9473 50.2734 82.5918 50.3691 82.3457 50.5605C82.0996 50.7428 81.9766 50.9844 81.9766 51.2852C81.9766 51.4492 82.0221 51.5996 82.1133 51.7363C82.2044 51.873 82.2956 51.9824 82.3867 52.0645C82.487 52.1465 82.651 52.2376 82.8789 52.3379C83.1159 52.429 83.2891 52.4928 83.3984 52.5293C83.5169 52.5658 83.7174 52.6296 84 52.7207C85.6589 53.2311 86.4883 53.9922 86.4883 55.0039C86.4883 55.6328 86.2194 56.166 85.6816 56.6035C85.1439 57.0319 84.3919 57.2461 83.4258 57.2461C82.7057 57.2461 82.0586 57.082 81.4844 56.7539C80.9102 56.4258 80.4681 55.9792 80.1582 55.4141Z" fill="black"/>
<g clip-path="url(#clip0_24_289)">
<path d="M30.5544 28.3365C34.9022 27.0681 35.9345 19.3344 35.7781 16.2409C35.653 14.3229 35.3402 16.0862 34.9335 15.6531C34.7771 15.4675 34.652 15.8387 34.5269 16.0243C33.0567 18.6229 31.743 21.5308 30.2416 24.1293C29.3032 23.0466 26.8008 20.943 26.0501 20.2624C25.2994 19.5509 25.3932 19.6437 25.1117 19.3653C23.5477 17.8495 22.2966 16.5502 20.67 15.22C20.5136 15.0963 20.3885 15.0035 20.2321 14.9107C19.888 14.6632 19.5127 14.4157 19.106 14.5704C18.8245 14.6632 18.6681 14.9107 18.6056 15.1891C18.543 15.3438 18.5117 15.5603 18.5117 15.715C18.543 17.2927 29.2406 28.7077 30.5544 28.3365Z" fill="#E69973"/>
<path d="M34.7147 11.8171C34.5583 12.2193 34.2455 12.4668 34.0265 12.8071C33.6824 13.333 33.5573 13.9517 33.6824 14.5394C33.8388 15.1581 34.1516 15.5603 34.4644 16.0862C34.9336 15.8078 35.1526 15.4675 35.309 14.9725C35.4654 14.4776 35.4654 13.9826 35.4654 13.4876C35.4654 13.0855 35.4341 12.7143 35.5592 12.3121C35.6218 12.0646 35.7782 11.8171 35.7782 11.5697C35.7782 11.3222 35.5592 11.0128 35.309 11.0438C34.8398 11.0128 34.8085 11.5387 34.7147 11.8171Z" fill="#E69973"/>
<path d="M35.8719 16.8286C35.2776 17.0761 34.433 17.4164 34.3392 16.4883C34.3079 16.179 34.5269 15.9315 34.6833 15.6531C34.8397 15.3747 35.0586 15.1581 35.1525 14.8178C35.3714 14.0135 34.7771 13.333 34.871 12.4977C34.9648 11.7553 35.6529 11.0128 36.4349 10.8891C36.8416 10.8272 37.2169 10.951 37.5923 11.0438C37.8738 11.1056 38.1553 11.1675 38.343 11.384C39.0937 12.2193 39.0624 13.5186 38.7496 14.5085C38.3743 15.715 37.3733 16.0243 36.3724 16.5811C36.2785 16.643 36.0596 16.7358 35.8719 16.8286Z" fill="#FFBE9D"/>
<path d="M35.1213 16.1171C35.2151 16.1481 35.4028 16.2099 35.5279 16.2099C35.7468 16.2099 35.9032 16.2099 35.9345 15.9315C36.216 13.7042 36.8104 11.3841 37.2795 9.18769C37.3421 8.90927 37.1857 8.81647 36.9668 8.72366C36.8416 8.69273 36.654 8.66179 36.5288 8.63086C36.3099 8.63086 36.1222 8.66179 36.0596 8.94021C35.5904 11.1057 34.9023 13.4258 34.7772 15.6531C34.7459 15.9625 34.9023 16.0553 35.1213 16.1171Z" fill="#263238"/>
<path d="M35.1211 12.6833C35.0898 12.2502 35.1837 11.879 35.4026 11.5078C35.5903 11.5387 35.778 11.5387 35.9344 11.5697C36.4661 11.6934 36.9353 11.9099 37.4045 12.2193C37.4984 12.2812 37.5609 12.1884 37.4983 12.1265C37.0604 11.7243 36.5912 11.4459 36.0282 11.2912C35.9656 11.2603 35.9031 11.2603 35.8405 11.2294C35.778 11.1984 35.7154 11.1675 35.7154 11.0747C35.7154 11.0128 35.7467 10.92 35.8093 10.8891C35.8718 10.8582 35.9656 10.8272 36.0282 10.8272C36.56 10.7963 37.0917 10.8891 37.5922 11.0438C37.8737 11.1366 38.1552 11.1675 38.3429 11.384C39.0936 12.2502 39.0311 13.4258 38.7808 14.5085C38.6244 15.0962 38.1865 15.7459 37.5609 15.8078C37.1856 15.8387 36.8728 15.6531 36.56 15.4984C36.2784 15.3437 35.9969 15.1272 35.8093 14.8488C35.3401 14.1991 35.1524 13.4876 35.1211 12.6833Z" fill="#FFBE9D"/>
<path d="M32.9003 19.2106C32.9629 19.3653 33.088 19.4891 33.2444 19.6128C34.0264 20.2934 34.8084 21.0049 35.5591 21.6854C35.6842 21.2214 35.8406 20.7265 35.9657 20.2624C36.0283 20.0459 36.0908 19.8293 36.1534 19.6128C36.1534 19.5819 35.9657 19.3653 35.9344 19.3344C35.3088 18.561 34.4643 18.1588 33.5885 17.7258C33.5572 17.7258 33.5572 17.6948 33.5259 17.6948C33.3695 17.9732 33.2757 18.1588 33.1193 18.4063C32.9316 18.6538 32.8065 18.9632 32.9003 19.2106Z" fill="white"/>
<path d="M16.7913 17.6639C16.9165 18.066 17.1667 18.4373 17.5108 18.7157C18.0738 19.1488 18.5743 19.6437 19.106 20.0768C20.9515 21.6854 22.797 23.2941 24.6425 24.9027C26.3316 26.3876 28.8027 29.3264 31.3364 28.8314C32.5876 28.5839 33.4321 27.625 34.0577 26.6041C34.7458 25.4904 35.2776 24.284 35.9032 23.1394C36.0283 22.9228 36.1222 22.7372 36.2473 22.5207C35.5591 20.8811 34.4018 19.4581 32.9629 18.4373C31.8681 20.1078 31.0236 22.2423 30.179 23.5106L20.9203 14.7869C19.9506 13.9208 18.3866 14.1064 17.4169 15.1582C16.7288 15.8697 16.5098 16.8596 16.7913 17.6639Z" fill="#2F3133"/>
<path d="M20.1696 14.3229C23.3288 14.725 24.8616 17.6329 25.3933 21.4689L27.8331 45.2269L16.2597 45.1032L14.0075 19.984C13.9137 17.4782 14.6644 15.3128 16.5725 14.4776C17.5108 14.1063 19.1687 14.1991 20.1696 14.3229Z" fill="#2F3133"/>
<path d="M24.2985 79.5339L20.7639 79.5029V87.9482L24.2985 87.9791V79.5339Z" fill="#FFBE9D"/>
<path d="M14.1641 79.4411L10.6295 79.4102L8.97168 87.8245L12.5063 87.8554L14.1641 79.4411Z" fill="#FFBE9D"/>
<path d="M20.7639 84.4216L24.2985 83.772L31.1488 86.7417C31.5867 86.9273 31.8369 87.3295 31.8369 87.7935C31.8369 87.9482 31.7118 88.1029 31.5241 88.1029L20.7327 87.9791V84.4216H20.7639Z" fill="#222221"/>
<path d="M9.44068 85.3806L13.0378 85.1022L19.3563 87.6698C19.7942 87.8554 20.0445 88.2575 20.0445 88.7216C20.0445 88.8762 19.9194 89.0309 19.7317 89.0309L8.65869 88.9072L9.44068 85.3806Z" fill="#222221"/>
<path d="M20.4199 84.6072L27.3014 84.7L25.3933 37.7097L14.0388 37.586L19.6066 61.4988L20.4199 84.6072Z" fill="#263238"/>
<path d="M8.97144 85.7209L15.634 85.7827L25.3932 37.7097L14.0387 37.586L13.9762 61.9009L8.97144 85.7209Z" fill="#34444D"/>
<path d="M21.7024 14.292C21.5147 14.0136 21.2332 13.8589 20.9517 13.7352C20.201 13.3639 19.4503 13.0855 18.6683 12.838C18.5119 12.7762 18.3242 12.7452 18.1678 12.8071C18.0427 12.869 17.9801 12.9927 17.8863 13.1165C17.5735 13.6423 17.292 14.1682 17.0417 14.7251C17.9801 14.9725 18.9185 15.22 19.8569 15.4675C20.3261 15.5913 20.7953 15.7459 21.2645 15.8387C21.6086 15.9006 21.8588 15.9315 21.8901 15.5294C21.9214 15.1582 21.9214 14.6323 21.7024 14.292Z" fill="#B8D1E6"/>
<path d="M18.0116 15.9934C18.4183 16.3956 18.9187 16.6121 19.4505 16.7049C19.7946 16.7668 20.1699 16.7977 20.4515 16.5502C20.4827 16.5193 20.5453 16.4574 20.5766 16.4265C20.8268 16.0862 20.8581 15.5912 20.9206 15.1272C20.9832 14.5395 21.1083 14.0136 21.2647 13.4877C21.4211 12.9927 21.5775 12.4668 21.6401 11.9409C21.7339 11.2294 21.3586 10.2086 20.9206 9.62079C20.514 9.09489 19.9197 8.72367 19.3567 8.63087C19.0439 8.59993 18.6372 8.38339 18.4183 8.63087C18.3244 8.72367 18.2619 9.15676 18.1993 9.71359C18.168 9.8992 18.1368 10.0848 18.1368 10.3014C18.0116 11.1675 17.8552 12.0337 17.6676 12.8999C17.4173 14.0754 17.1045 15.0963 18.0116 15.9934Z" fill="#FFBE9D"/>
<path d="M18.1367 10.3014C18.2931 10.5179 18.4495 10.7345 18.6059 10.951C19.0438 11.5388 19.5443 12.1575 20.1386 12.6834C20.4514 13.0236 20.8268 13.333 21.2647 13.5186C21.4211 13.0236 21.5775 12.4978 21.64 11.9719C21.7339 11.2604 21.3585 10.2395 20.9206 9.65173C20.514 9.12584 19.9197 8.75462 19.3566 8.66181C19.0438 8.63088 18.6372 8.41433 18.4182 8.66181C18.3244 8.75462 18.2618 9.18771 18.1993 9.74454C18.1993 9.93015 18.168 10.1158 18.1367 10.3014Z" fill="#222221"/>
<path d="M23.7359 1.11363C21.3586 0.154648 18.8876 1.76327 17.8553 3.89778C17.4487 4.73303 17.2297 5.66108 17.2923 6.58913C17.3861 8.04307 18.0743 9.40421 18.9814 10.5488C19.4193 11.1366 19.9198 11.7553 20.5141 12.2812C21.0459 12.8689 21.7966 13.302 22.5786 13.302C25.6127 13.797 26.4259 9.7445 26.7075 7.70279C27.0203 5.53734 26.4259 2.78412 24.3615 1.45392C24.2051 1.29924 23.9861 1.20644 23.7359 1.11363Z" fill="#FFBE9D"/>
<path d="M19.4818 5.04239C19.5756 4.36182 19.5443 3.80499 20.2012 3.34097C20.7642 2.96975 21.515 2.93881 22.2031 3.00068C23.0477 3.06255 23.9235 3.21723 24.7368 3.40284C25.2372 3.52658 25.7064 3.80499 26.2382 3.80499C27.3955 3.83593 26.3007 2.25824 26.0192 1.88702C23.7358 -1.08274 18.8249 -0.464037 17.1984 2.81507C16.9794 3.2791 16.7917 3.77406 16.6979 4.26902C16.3538 6.12512 16.5102 8.19776 17.1984 9.96106C17.2922 10.2395 17.4173 10.6107 17.6363 10.8272C17.9178 11.1057 18.168 10.7963 18.2306 10.5488C18.2932 10.1467 18.3244 9.74451 18.1055 9.37329C17.9491 9.12581 17.7301 8.90927 17.5737 8.66179C17.2609 8.2287 16.8543 7.11504 17.5112 6.74382C18.1055 6.3726 18.6372 7.48626 18.7936 7.88841C18.8249 7.98122 18.8875 8.07402 18.9813 8.01215C19.0126 7.98122 19.0439 7.95028 19.0439 7.88841C19.2003 6.96036 19.3254 6.03231 19.4818 5.10426C19.4505 5.10426 19.4505 5.07333 19.4818 5.04239Z" fill="#222221"/>
<path d="M17.1046 7.08411C16.7918 7.64094 16.8543 8.35244 17.1671 8.87834C17.4174 9.24956 18.1055 9.89919 18.6373 9.83732C19.169 9.74452 19.388 8.90927 19.388 8.50712C19.388 8.01216 19.3254 7.23878 18.8875 6.83663C18.387 6.34167 17.605 6.3726 17.1671 6.92943C17.1359 6.9913 17.1046 7.02224 17.1046 7.08411Z" fill="#FFBE9D"/>
<path d="M17.7926 8.63085C17.7926 8.53805 17.9803 8.53805 18.0429 8.53805C18.168 8.53805 18.2618 8.56898 18.3869 8.63085C18.2931 8.2287 18.1054 7.85748 17.6362 7.7028V7.67186C17.8865 7.60999 18.168 7.7956 18.3244 7.98121C18.5746 8.25963 18.5746 8.69272 18.6059 9.03301C18.6059 9.15675 18.4495 9.15674 18.4182 9.06394C18.3869 8.9402 18.2931 8.81646 18.168 8.72366C18.0741 8.63085 17.949 8.63085 17.7926 8.63085Z" fill="#222221"/>
<path d="M21.9214 6.77475C21.984 6.68195 22.0778 6.62008 22.203 6.68195C22.3594 6.74382 22.3906 6.83662 22.3906 6.9913C22.4219 7.26971 22.3906 7.67187 22.203 7.88841C22.1091 8.01215 21.9527 8.07402 21.7963 8.01215C21.6086 7.88841 21.6086 7.57906 21.6712 7.39345C21.7338 7.23878 21.7963 6.92943 21.9214 6.77475Z" fill="#222221"/>
<path d="M24.9869 7.11508C25.0494 7.02228 25.1433 6.96041 25.2684 7.02228C25.4248 7.08415 25.4561 7.17696 25.4561 7.33163C25.4873 7.61005 25.4561 8.0122 25.2684 8.22875C25.1745 8.35249 25.0182 8.41435 24.8618 8.35248C24.6741 8.22874 24.6741 7.91939 24.7366 7.73378C24.7992 7.57911 24.8618 7.26976 24.9869 7.11508Z" fill="#222221"/>
<path d="M23.6732 10.0229C23.6419 9.93011 23.767 9.80637 23.8296 9.7445C23.8608 9.71357 23.9234 9.68263 23.9547 9.62076C24.0172 9.55889 24.0798 9.52796 24.1424 9.46609L24.1736 9.43515C24.1736 9.40422 24.1736 9.40422 24.1424 9.37328C24.0798 9.28048 24.0172 9.18767 23.9547 9.09487C23.8921 9.00206 23.8608 8.90926 23.8296 8.78552C23.6419 8.29056 23.5481 7.70279 23.7045 7.20783C23.767 7.02222 23.8921 6.71287 24.0798 6.651C24.0798 6.92942 23.8296 7.1769 23.7983 7.45531C23.6732 8.04308 23.9547 8.69271 24.3926 9.09487C24.4552 9.15674 24.5177 9.18767 24.549 9.24954C24.8618 9.68263 23.9234 9.93011 23.6732 10.0229Z" fill="#222221"/>
<path d="M22.1406 9.96105C22.3908 10.2704 22.5785 10.5488 22.9225 10.7344C23.3292 10.92 23.7984 11.0128 24.2363 10.9819C24.2676 10.9819 24.2676 11.0128 24.2363 11.0438C23.7671 11.2294 23.2979 11.2603 22.8287 11.0128C22.4534 10.8272 22.078 10.4869 21.9529 10.0539C21.9529 9.96105 22.078 9.86824 22.1406 9.96105Z" fill="#222221"/>
<path d="M20.7954 4.79493C21.2021 4.36184 21.64 4.11436 22.203 4.14529C22.7348 4.17623 23.2353 4.3309 23.3604 4.8568C23.3604 4.88773 23.3604 4.88773 23.3291 4.88773C22.985 4.79493 22.6722 4.60932 22.3281 4.54745C21.859 4.48558 21.2959 4.60932 20.858 4.8568C20.7954 4.88773 20.7329 4.82586 20.7954 4.79493Z" fill="#222221"/>
<path d="M26.3319 6.1251C26.1755 5.72295 25.9253 5.5064 25.5499 5.53734C25.2059 5.56827 24.8305 5.75388 24.6428 6.24884C24.6428 6.27978 24.6428 6.27978 24.6428 6.27978C24.8931 6.18697 25.1433 5.97043 25.3623 5.90856C25.6751 5.81575 26.0191 5.93949 26.2381 6.18697C26.3006 6.21791 26.3632 6.15604 26.3319 6.1251Z" fill="#222221"/>
<path d="M21.0769 14.261C20.8892 13.9826 20.6077 13.797 20.3262 13.6423C19.5755 13.2402 18.8248 12.8999 18.0428 12.6524C17.8864 12.5906 17.6987 12.5596 17.5423 12.6215C17.4172 12.6834 17.3546 12.838 17.2608 12.9618C16.948 13.5495 16.6665 14.1373 16.4163 14.7251C17.3546 15.0035 18.293 15.2819 19.2314 15.5603C19.7006 15.6841 20.1698 15.8697 20.639 15.9934C20.9831 16.0862 21.2333 16.0862 21.2646 15.6531C21.3272 15.22 21.2959 14.6323 21.0769 14.261Z" fill="white"/>
<path d="M19.0124 14.6941C22.1716 14.7251 23.5166 17.5092 23.892 20.7574L25.3621 37.7098L13.9451 40.0918V19.7984C13.9763 16.7049 16.9792 14.6632 19.0124 14.6941Z" fill="white"/>
<path d="M12.6001 20.5409V46.3406L24.1736 46.4644L23.2352 31.0588L22.6721 21.7164C22.3281 18.4063 21.3271 15.4984 19.1688 14.5704C18.7309 14.3848 18.2304 14.292 17.6987 14.261C15.6342 14.261 12.6001 16.7668 12.6001 20.5409Z" fill="#54585B"/>
<path d="M20.0133 18.4372L21.546 19.5818L20.6701 26.0473L23.2351 31.0587L22.672 21.7164C22.3279 18.4063 21.327 15.4984 19.1687 14.5704L20.0133 18.4372Z" fill="#6E6E6E"/>
<path d="M14.7897 50.8262C15.0086 50.8262 15.165 50.6715 15.165 50.455V49.0011C15.165 48.6917 15.4153 48.4442 15.7281 48.4442H20.2323C20.5451 48.4442 20.7953 48.6917 20.7953 49.0011V50.455C20.7953 50.6715 20.9517 50.8262 21.1707 50.8262C21.3897 50.8262 21.5461 50.6715 21.5461 50.455V49.0011C21.5461 48.2895 20.9517 47.7018 20.2323 47.7018H15.7281C15.0086 47.7018 14.4143 48.2895 14.4143 49.0011V50.455C14.4143 50.6715 14.5707 50.8262 14.7897 50.8262Z" fill="#331805"/>
<path d="M14.383 50.3622H15.2901C15.4778 50.3622 15.6342 50.2075 15.6342 50.0219V49.8054C15.6342 49.6198 15.4778 49.4651 15.2901 49.4651H14.383C14.1953 49.4651 14.0389 49.6198 14.0389 49.8054V50.0219C14.0076 50.2075 14.164 50.3622 14.383 50.3622Z" fill="#B37700"/>
<path d="M9.19055 50.5787H10.5669C10.6294 50.5787 10.692 50.5169 10.692 50.455V49.7744C10.692 49.7126 10.6294 49.6507 10.5669 49.6507H9.19055C9.12799 49.6507 9.06543 49.7126 9.06543 49.7744V50.455C9.06543 50.5169 9.12799 50.5787 9.19055 50.5787Z" fill="#331805"/>
<path d="M25.3622 50.5787H26.7385C26.801 50.5787 26.8636 50.5169 26.8636 50.455V49.7744C26.8636 49.7126 26.801 49.6507 26.7385 49.6507H25.3622C25.2996 49.6507 25.2371 49.7126 25.2371 49.7744V50.455C25.2371 50.5169 25.2996 50.5787 25.3622 50.5787Z" fill="#331805"/>
<path d="M20.6702 50.3931H21.5774C21.765 50.3931 21.9214 50.2385 21.9214 50.0529V49.8054C21.9214 49.6198 21.765 49.4651 21.5774 49.4651H20.6702C20.4826 49.4651 20.3262 49.6198 20.3262 49.8054V50.0219C20.3262 50.2385 20.4826 50.3931 20.6702 50.3931Z" fill="#B37700"/>
<path d="M6 51.0737V66.2319C6 66.7578 6.43791 67.1909 6.96967 67.1909H29.7725C30.3043 67.1909 30.7422 66.7578 30.7422 66.2319V51.0737C30.7422 50.9809 30.7422 50.919 30.7109 50.8262C30.6171 50.3932 30.2104 50.0838 29.7412 50.0838H6.96967C6.50047 50.0838 6.12512 50.3932 6 50.8262C6 50.919 6 51.0119 6 51.0737Z" fill="#99633D"/>
<path d="M6 51.0737V66.2319C6 66.7578 6.43791 67.1908 6.96967 67.1908H29.7725C30.3043 67.1908 30.7422 66.7578 30.7422 66.2319V51.0737C30.7422 50.9809 30.7422 50.919 30.7109 50.8262C30.6796 50.8262 30.6171 50.8262 30.5858 50.8262H6.1564C6.09384 50.8262 6.06256 50.8262 6 50.8262C6 50.919 6 51.0118 6 51.0737Z" fill="#804B26"/>
<path d="M6 51.0737V52.4967C6.03128 52.4967 6.06256 52.5276 6.09384 52.5276C6.21896 52.5276 6.3128 52.4348 6.3128 52.3111V51.383C6.34408 51.383 6.37536 51.383 6.40664 51.383C6.90711 51.383 7.34502 50.9809 7.34502 50.455H8.34597C8.47109 50.455 8.56493 50.3622 8.56493 50.2384C8.56493 50.2075 8.56493 50.1766 8.53365 50.1456H6.96967C6.50047 50.1456 6.12512 50.455 6 50.8881C6 50.919 6 51.0118 6 51.0737Z" fill="#B37700"/>
<path d="M6 64.7779V66.2628C6 66.7887 6.43791 67.2218 6.96967 67.2218H8.37725C8.37725 67.098 8.25213 67.0052 8.15829 67.0052H7.21991C7.21991 66.9743 7.21991 66.9434 7.21991 66.9124C7.21991 66.4175 6.81327 65.9844 6.28152 65.9844V64.9945C6.28152 64.8707 6.18768 64.7779 6.06256 64.7779C6.03128 64.747 6.03128 64.7779 6 64.7779Z" fill="#B37700"/>
<path d="M28.146 67.129C28.146 67.1599 28.146 67.1908 28.1773 67.2218H29.7725C30.3043 67.2218 30.7422 66.7887 30.7422 66.2628V64.8707C30.7109 64.8398 30.6796 64.8398 30.6484 64.8398C30.5232 64.8398 30.4294 64.9326 30.4294 65.0563V65.9844C30.3981 65.9844 30.3668 65.9844 30.3356 65.9844C29.8351 65.9844 29.3972 66.3865 29.3972 66.9124H28.3962C28.2711 66.9124 28.146 67.0052 28.146 67.129Z" fill="#B37700"/>
<path d="M28.365 50.1147C28.365 50.2385 28.4588 50.3313 28.5839 50.3313H29.5223C29.5223 50.3622 29.5223 50.3932 29.5223 50.4241C29.5223 50.919 29.929 51.3521 30.4607 51.3521V52.3421C30.4607 52.4658 30.5546 52.5586 30.6797 52.5586C30.711 52.5586 30.7422 52.5586 30.7422 52.5586V51.0737C30.7422 50.9809 30.7422 50.919 30.711 50.8262C30.6171 50.3932 30.2105 50.0838 29.7413 50.0838H28.365V50.1147Z" fill="#B37700"/>
<path d="M17.3857 45.5054C17.1667 45.5363 16.979 45.5982 16.8226 45.7529C16.6349 45.9385 16.5098 46.2169 16.4473 46.4953C16.2283 47.2068 15.7904 49.0938 16.6037 49.4651C16.8226 49.5579 17.0416 49.5579 17.2605 49.5579C17.6985 49.5579 18.1364 49.5579 18.5743 49.5579C18.9184 49.5579 19.325 49.5269 19.5752 49.2176C19.7942 48.9082 19.7629 48.4442 19.7003 48.042C19.6378 47.5471 19.5439 47.0521 19.4501 46.5881C19.3876 46.3406 19.325 46.0622 19.1999 45.8766C18.9809 45.5982 18.6368 45.5363 18.324 45.5672C18.0738 45.5363 17.7297 45.4744 17.3857 45.5054Z" fill="#FFBE9D"/>
<path d="M16.5412 34.3688C16.9791 34.3378 17.4483 34.3069 17.8549 34.4925C18.981 34.9565 18.6682 37.2148 18.762 38.1738C18.8872 39.5349 19.0436 40.927 19.1687 42.2881C19.2 42.5047 19.5128 45.2579 19.5753 46.155L15.8843 46.0622C15.6966 44.5155 15.509 42.9996 15.3213 41.4529C15.1336 39.9371 14.9459 38.3903 14.7895 36.8745C14.6331 35.5134 14.508 34.6163 16.2284 34.3997C16.3535 34.3997 16.4473 34.3688 16.5412 34.3688Z" fill="white"/>
<path d="M13.2568 30.6256L14.6331 43.3399L14.7583 44.5773L19.7004 44.1752L18.3867 30.5638L19.5128 17.7876C19.6379 16.5193 18.5431 15.3747 17.1042 15.2509C16.1033 15.1581 15.1962 15.5912 14.6957 16.2718C14.4455 16.6121 14.2891 17.0142 14.2891 17.4473L13.2568 30.6256Z" fill="#6E6E6E"/>
</g>
<defs>
<clipPath id="clip0_24_289">
<rect width="33" height="89" fill="white" transform="translate(6)"/>
</clipPath>
</defs>
</svg>
