<svg width="152" height="119" viewBox="0 0 152 119" fill="none" xmlns="http://www.w3.org/2000/svg">
<rect x="8.5" y="47.5" width="143" height="71" rx="7.5" stroke="#0096FF"/>
<path d="M35.6152 81.6953C35.6152 80.0273 36.0254 78.6829 36.8457 77.6621C37.6751 76.6413 38.7734 76.1309 40.1406 76.1309C41.5078 76.1309 42.597 76.6413 43.4082 77.6621C44.2285 78.6829 44.6387 80.0319 44.6387 81.709C44.6387 83.3952 44.2285 84.7396 43.4082 85.7422C42.5879 86.7448 41.4987 87.2461 40.1406 87.2461C38.7734 87.2461 37.6751 86.7448 36.8457 85.7422C36.0254 84.7305 35.6152 83.3815 35.6152 81.6953ZM37.2422 81.6953C37.2422 82.9896 37.4974 84.015 38.0078 84.7715C38.5273 85.528 39.2383 85.9062 40.1406 85.9062C41.0339 85.9062 41.7357 85.5326 42.2461 84.7852C42.7656 84.0378 43.0254 83.0124 43.0254 81.709C43.0254 80.4238 42.7702 79.3984 42.2598 78.6328C41.7585 77.8581 41.0521 77.4707 40.1406 77.4707C39.2383 77.4707 38.5273 77.8535 38.0078 78.6191C37.4974 79.3757 37.2422 80.401 37.2422 81.6953ZM47.8105 83.1309C47.8105 83.9876 47.9792 84.6758 48.3164 85.1953C48.6536 85.7148 49.1185 85.9746 49.7109 85.9746C50.276 85.9746 50.7363 85.724 51.0918 85.2227C51.4564 84.7122 51.6387 84.015 51.6387 83.1309C51.6387 82.2832 51.4655 81.6042 51.1191 81.0938C50.7819 80.5833 50.3125 80.3281 49.7109 80.3281C49.1276 80.3281 48.6628 80.5879 48.3164 81.1074C47.9792 81.627 47.8105 82.3014 47.8105 83.1309ZM46.334 90.2129V79.2891H47.7695V80.4102C47.9701 80.0091 48.2572 79.681 48.6309 79.4258C49.0046 79.1706 49.4329 79.043 49.916 79.043C50.8548 79.043 51.6341 79.4121 52.2539 80.1504C52.8737 80.8887 53.1836 81.8822 53.1836 83.1309C53.1836 83.8236 53.0833 84.4434 52.8828 84.9902C52.6914 85.5371 52.4362 85.9701 52.1172 86.2891C51.7982 86.6081 51.4518 86.8451 51.0781 87C50.7044 87.1641 50.3171 87.2461 49.916 87.2461C49.3965 87.2461 48.959 87.123 48.6035 86.877C48.248 86.6217 47.9883 86.3164 47.8242 85.9609V90.2129H46.334ZM56.2598 83.1309C56.2598 83.9876 56.4284 84.6758 56.7656 85.1953C57.1029 85.7148 57.5677 85.9746 58.1602 85.9746C58.7253 85.9746 59.1855 85.724 59.541 85.2227C59.9056 84.7122 60.0879 84.015 60.0879 83.1309C60.0879 82.2832 59.9147 81.6042 59.5684 81.0938C59.2311 80.5833 58.7617 80.3281 58.1602 80.3281C57.5768 80.3281 57.112 80.5879 56.7656 81.1074C56.4284 81.627 56.2598 82.3014 56.2598 83.1309ZM54.7832 90.2129V79.2891H56.2188V80.4102C56.4193 80.0091 56.7064 79.681 57.0801 79.4258C57.4538 79.1706 57.8822 79.043 58.3652 79.043C59.304 79.043 60.0833 79.4121 60.7031 80.1504C61.3229 80.8887 61.6328 81.8822 61.6328 83.1309C61.6328 83.8236 61.5326 84.4434 61.332 84.9902C61.1406 85.5371 60.8854 85.9701 60.5664 86.2891C60.2474 86.6081 59.901 86.8451 59.5273 87C59.1536 87.1641 58.7663 87.2461 58.3652 87.2461C57.8457 87.2461 57.4082 87.123 57.0527 86.877C56.6973 86.6217 56.4375 86.3164 56.2734 85.9609V90.2129H54.7832ZM64.2168 83.1445C64.2168 84.0651 64.4128 84.7669 64.8047 85.25C65.1966 85.7331 65.666 85.9746 66.2129 85.9746C66.7507 85.9746 67.2155 85.7331 67.6074 85.25C68.0085 84.7669 68.209 84.0651 68.209 83.1445C68.209 82.2148 68.0085 81.513 67.6074 81.0391C67.2155 80.5651 66.7507 80.3281 66.2129 80.3281C65.6751 80.3281 65.2057 80.5651 64.8047 81.0391C64.4128 81.513 64.2168 82.2148 64.2168 83.1445ZM62.6855 83.1445C62.6855 82.3971 62.804 81.7227 63.041 81.1211C63.2871 80.5195 63.6836 80.0228 64.2305 79.6309C64.7773 79.2389 65.4382 79.043 66.2129 79.043C67.3522 79.043 68.2227 79.4395 68.8242 80.2324C69.4349 81.0163 69.7402 81.987 69.7402 83.1445C69.7402 83.6185 69.681 84.0833 69.5625 84.5391C69.444 84.9857 69.2526 85.4186 68.9883 85.8379C68.7331 86.2572 68.3639 86.599 67.8809 86.8633C67.4069 87.1185 66.8509 87.2461 66.2129 87.2461C65.5749 87.2461 65.0189 87.123 64.5449 86.877C64.071 86.6217 63.7018 86.2891 63.4375 85.8789C63.1823 85.4596 62.9909 85.0221 62.8633 84.5664C62.7448 84.1107 62.6855 83.6367 62.6855 83.1445ZM71.2578 87V79.2891H72.6934V80.2188C72.8483 79.918 73.0944 79.6491 73.4316 79.4121C73.7689 79.166 74.1745 79.043 74.6484 79.043C75.0677 79.043 75.4095 79.1022 75.6738 79.2207V80.6016C75.373 80.4831 75.0312 80.4238 74.6484 80.4238C74.0469 80.4238 73.582 80.6562 73.2539 81.1211C72.9349 81.5768 72.7754 82.1875 72.7754 82.9531V87H71.2578ZM76.1113 80.5742V79.2891H77.3555V76.9512H78.8594V79.2891H80.7051V80.5742H78.8594V84.5938C78.8594 84.9948 78.9368 85.2819 79.0918 85.4551C79.2559 85.6283 79.502 85.7148 79.8301 85.7148H80.7051V87H79.6387C78.1165 87 77.3555 86.2344 77.3555 84.7031V80.5742H76.1113ZM82.0176 84.2383V79.2891H83.5352V84.0059C83.5352 85.3184 84 85.9746 84.9297 85.9746C85.4948 85.9746 85.9277 85.7467 86.2285 85.291C86.5384 84.8262 86.6934 84.2747 86.6934 83.6367V79.2891H88.1836V87H86.748V85.9883H86.7207C86.5931 86.2891 86.3516 86.5762 85.9961 86.8496C85.6406 87.1139 85.1712 87.2461 84.5879 87.2461C83.8861 87.2461 83.2799 87.0091 82.7695 86.5352C82.2682 86.0612 82.0176 85.2956 82.0176 84.2383ZM90.1797 87V79.2891H91.6426V80.3691H91.6562C91.7747 80.0592 92.0299 79.763 92.4219 79.4805C92.8229 79.1888 93.3151 79.043 93.8984 79.043C94.6458 79.043 95.2474 79.2754 95.7031 79.7402C96.1589 80.2051 96.3867 80.9707 96.3867 82.0371V87H94.8828V82.2422C94.8828 80.9661 94.4408 80.3281 93.5566 80.3281C93.0371 80.3281 92.5951 80.5423 92.2305 80.9707C91.875 81.39 91.6973 81.9004 91.6973 82.502V87H90.1797ZM98.3828 77.9492V76.2266H100.064V77.9492H98.3828ZM98.4922 87V79.2891H99.9824V87H98.4922ZM101.418 80.5742V79.2891H102.662V76.9512H104.166V79.2891H106.012V80.5742H104.166V84.5938C104.166 84.9948 104.243 85.2819 104.398 85.4551C104.562 85.6283 104.809 85.7148 105.137 85.7148H106.012V87H104.945C103.423 87 102.662 86.2344 102.662 84.7031V80.5742H101.418ZM107.516 77.9492V76.2266H109.197V77.9492H107.516ZM107.625 87V79.2891H109.115V87H107.625ZM110.824 83.1035C110.824 81.8822 111.157 80.9023 111.822 80.1641C112.497 79.4167 113.349 79.043 114.379 79.043C115.409 79.043 116.243 79.4121 116.881 80.1504C117.528 80.8887 117.852 81.8411 117.852 83.0078C117.852 83.026 117.838 83.2402 117.811 83.6504H112.342C112.342 84.2975 112.529 84.8535 112.902 85.3184C113.276 85.7832 113.796 86.0156 114.461 86.0156C114.908 86.0156 115.304 85.9062 115.65 85.6875C115.997 85.4688 116.261 85.1862 116.443 84.8398L117.701 85.2637C117.455 85.8379 117.054 86.3118 116.498 86.6855C115.951 87.0592 115.268 87.2461 114.447 87.2461C113.372 87.2461 112.497 86.8724 111.822 86.125C111.157 85.3685 110.824 84.3613 110.824 83.1035ZM112.369 82.5703H116.32C116.32 81.9232 116.147 81.3763 115.801 80.9297C115.454 80.4831 114.98 80.2598 114.379 80.2598C113.768 80.2598 113.285 80.4876 112.93 80.9434C112.574 81.3991 112.387 81.9414 112.369 82.5703ZM118.74 85.4141L119.834 84.7852C120.39 85.6055 121.105 86.0156 121.98 86.0156C122.445 86.0156 122.819 85.9245 123.102 85.7422C123.384 85.5508 123.525 85.3001 123.525 84.9902C123.525 84.5892 123.225 84.2611 122.623 84.0059C122.432 83.9147 121.999 83.7643 121.324 83.5547C121.005 83.4544 120.727 83.3542 120.49 83.2539C120.262 83.1445 120.025 83.0033 119.779 82.8301C119.542 82.6478 119.36 82.4245 119.232 82.1602C119.105 81.8958 119.041 81.5951 119.041 81.2578C119.041 80.5924 119.319 80.0592 119.875 79.6582C120.431 79.248 121.137 79.043 121.994 79.043C122.623 79.043 123.211 79.2116 123.758 79.5488C124.305 79.8861 124.71 80.3008 124.975 80.793L123.977 81.4082C123.457 80.6517 122.796 80.2734 121.994 80.2734C121.529 80.2734 121.174 80.3691 120.928 80.5605C120.682 80.7428 120.559 80.9844 120.559 81.2852C120.559 81.4492 120.604 81.5996 120.695 81.7363C120.786 81.873 120.878 81.9824 120.969 82.0645C121.069 82.1465 121.233 82.2376 121.461 82.3379C121.698 82.429 121.871 82.4928 121.98 82.5293C122.099 82.5658 122.299 82.6296 122.582 82.7207C124.241 83.2311 125.07 83.9922 125.07 85.0039C125.07 85.6328 124.801 86.166 124.264 86.6035C123.726 87.0319 122.974 87.2461 122.008 87.2461C121.288 87.2461 120.641 87.082 120.066 86.7539C119.492 86.4258 119.05 85.9792 118.74 85.4141Z" fill="black"/>
<g clip-path="url(#clip0_24_288)">
<path d="M21.0387 19.4876C22.4211 19.3532 23.736 18.11 25.1858 18.2108C25.8601 18.278 26.5007 18.5804 27.1413 18.4124C27.647 18.278 28.0179 17.8412 28.4899 17.6061C29.0294 17.3709 29.67 17.4717 30.2431 17.4381C31.0523 17.4045 31.8278 17.1693 32.6033 16.9341C33.817 16.5645 35.0308 16.1949 36.2109 15.8253C37.1212 15.5565 38.1664 15.2877 38.9756 15.8253C39.1779 15.0525 38.8407 14.2461 38.4361 13.5405C37.8967 12.5998 37.2898 11.6926 37.3909 10.5838C37.4921 9.47501 37.4584 8.53423 36.7166 7.62705C36.4132 7.25746 36.0423 6.95506 35.84 6.55187C35.4691 5.74549 35.8063 4.67031 35.2668 3.96472C34.9634 3.59513 34.4576 3.42713 34.053 3.15834C33.5136 2.82235 33.109 2.28476 32.6033 1.91517C32.0975 1.51197 31.3895 1.27678 30.8163 1.57917C30.7826 0.302398 28.5236 -0.167993 27.5796 0.100802C26.7367 0.335997 26.0287 1.00798 25.1858 1.20958C24.3091 1.44477 23.3314 1.17598 22.5222 1.57917C21.713 1.94876 21.2747 2.85595 21.1061 3.72953C20.9376 4.60311 20.9376 5.51029 20.7015 6.38388C20.533 6.95506 20.2632 7.55985 20.3981 8.13104C20.533 8.73583 21.1061 9.20622 21.1398 9.84461C21.2073 10.5838 20.4655 11.2558 20.5667 11.995C20.6341 12.5662 21.1736 12.9693 21.2747 13.5405C21.3421 14.0445 21.0724 14.5149 20.8701 15.0189C20.2632 16.5645 21.3084 17.9756 20.3644 19.4204C20.5667 19.4876 20.8027 19.4876 21.0387 19.4876Z" fill="#E68A2E"/>
<path d="M31.5917 21.1676C31.5917 22.646 31.5242 24.0572 31.2545 25.5019C30.9511 26.9467 30.5128 28.3579 29.9059 29.7018C29.8722 29.769 29.8384 29.8362 29.8047 29.937C29.299 31.0794 28.7258 32.8938 27.6132 33.3306C23.9719 34.7753 14.7337 27.5515 14.3628 26.6779C14.1268 26.1403 14.4977 26.0395 14.9023 25.9723C15.0709 25.9387 15.2394 25.9723 15.4755 26.0395C18.7796 27.2827 22.0838 28.4923 25.3879 29.8026C25.2868 29.769 26.6354 24.4939 26.7366 24.1244C26.8377 23.7548 26.9389 23.3852 27.0063 23.0156C27.4783 21.134 27.9503 19.2524 28.6247 17.4381C28.6921 17.2701 28.7595 17.1357 28.827 16.9677C28.9618 16.5981 29.1641 16.1949 29.5687 16.1277C29.8384 16.0605 30.0745 16.1949 30.3105 16.3965C30.4453 16.5309 30.5465 16.6653 30.6476 16.7997C31.4231 18.0765 31.5917 19.6892 31.5917 21.1676Z" fill="#804426"/>
<path d="M12.9131 22.8812C13.2165 23.1164 13.6211 23.15 13.9583 23.2844C14.5314 23.5196 14.936 23.99 15.172 24.494C15.408 24.9979 15.4755 25.5355 15.5429 26.0731C15.0035 26.1739 14.464 25.9723 14.0931 25.6363C13.6885 25.3339 13.4525 24.9308 13.1828 24.5276C12.9805 24.2252 12.7782 23.8892 12.5085 23.6204C12.3399 23.4524 12.0702 23.3516 11.9353 23.15C11.8342 22.982 11.8004 22.5788 12.0365 22.4444C12.4073 22.2764 12.7108 22.7132 12.9131 22.8812Z" fill="#804426"/>
<path d="M14.8687 27.4507C15.6779 27.3163 16.7231 27.0475 15.9814 26.3419C15.7454 26.1067 15.4082 26.0059 15.071 25.9051C14.7339 25.8043 14.3967 25.7035 14.127 25.5019C13.4864 24.9979 13.6213 24.0907 13.1155 23.486C12.6772 22.9484 11.632 22.6796 11.0251 23.0156C10.688 23.1836 10.452 23.4859 10.2159 23.7547C10.0474 23.9563 9.87878 24.1579 9.81135 24.4267C9.57534 25.4011 10.4857 26.5435 11.1263 27.1483C11.9355 27.8875 13.2167 27.6523 14.1944 27.5179C14.363 27.5179 14.599 27.4843 14.8687 27.4507Z" fill="#804426"/>
<path d="M15.071 26.4763L14.7675 26.7787C14.6327 26.9131 14.3966 26.9131 14.2618 26.7787L9.57527 22.1084C9.44041 21.974 9.44041 21.7388 9.57527 21.6044L9.87871 21.302C10.0136 21.1676 10.2496 21.1676 10.3845 21.302L15.071 25.9723C15.2058 26.1067 15.2058 26.3419 15.071 26.4763Z" fill="#263238"/>
<path d="M13.0817 23.7548C12.8794 23.4188 12.6097 23.1164 12.2388 22.9484C12.104 23.0492 11.9691 23.15 11.8342 23.2844C11.4634 23.654 11.2273 24.0908 11.0588 24.5612C11.0251 24.662 10.8902 24.6284 10.9239 24.5276C11.0251 24.0236 11.2611 23.486 11.6319 23.0828C11.6657 23.0492 11.7331 22.982 11.7668 22.9484C11.8005 22.8812 11.8005 22.814 11.8005 22.7468C11.7668 22.6796 11.6994 22.646 11.6319 22.646C11.5645 22.646 11.4971 22.6796 11.4296 22.7132C10.9913 22.9148 10.6205 23.3516 10.317 23.6876C10.1484 23.8892 9.97986 24.0908 9.91242 24.3596C9.67641 25.3339 10.5867 26.4763 11.2273 27.0811C11.5982 27.4171 12.4411 27.7867 12.8794 27.4843C13.1492 27.3163 13.3514 27.0139 13.4863 26.7115C13.6212 26.4091 13.6886 26.1067 13.7223 25.8043C13.7223 25.1323 13.4863 24.3932 13.0817 23.7548Z" fill="#804426"/>
<path d="M31.5917 21.1676C31.5917 22.646 31.5243 24.0572 31.2546 25.5019C30.9511 26.9467 30.5128 28.3579 29.9059 29.7018C29.8722 29.769 29.8385 29.8362 29.8048 29.937C29.8048 29.9034 29.7711 29.8698 29.7711 29.8362C29.1979 28.4251 27.7818 27.6523 27.175 26.2747C26.8041 25.4347 26.8378 24.4604 26.9389 23.5532C26.9727 23.3852 26.9727 23.2172 27.0064 23.0492C27.4784 21.1676 27.9504 19.2861 28.6247 17.4717C29.1305 17.1021 29.7036 16.7325 30.2768 16.4301C30.4117 16.5645 30.5128 16.6989 30.614 16.8333C31.4232 18.0765 31.5917 19.6892 31.5917 21.1676Z" fill="#222221"/>
<path d="M26.0623 41.4616C26.0286 41.7976 26.0623 42.3015 25.7252 42.5031C25.5229 42.6039 25.2869 42.6039 25.0846 42.6039C24.3091 42.6039 22.8593 42.6375 22.0501 42.6375C21.8478 42.6375 21.6118 42.6375 21.4095 42.7047C20.9038 42.9063 20.9038 43.5783 20.8026 44.0487C20.6678 44.6535 20.5329 45.2583 20.3306 45.8631C20.1283 46.5687 20.0272 47.375 19.7237 48.047C19.69 48.1478 19.6226 48.2486 19.5552 48.3494C19.1506 49.055 18.6448 49.6934 18.1391 50.2982C17.9031 50.6006 17.6671 50.8694 17.431 51.1718C16.959 51.743 16.4533 52.3141 15.9475 52.9189C15.1384 53.8597 14.3292 54.8005 13.4863 55.8085C12.7782 56.6821 12.0365 57.5556 11.3285 58.4964C11.0587 58.8324 10.8227 59.202 10.5867 59.5716C10.3507 59.9412 10.1821 60.3444 10.1821 60.8484C10.1821 61.1844 10.2833 61.4196 10.4181 61.722C10.4519 61.7556 10.4519 61.8228 10.4856 61.8564C10.6541 62.2259 10.6879 62.6291 10.6541 62.9987C10.5867 63.4691 10.2833 63.8723 9.94611 64.1411C9.5078 64.4771 8.96835 64.5443 8.46261 64.7459C7.95687 64.9475 7.51857 65.3171 7.11397 65.6867C6.81053 65.9555 6.47337 66.2579 6.06878 66.4595C5.66419 66.6611 5.42818 66.6275 4.98987 66.5603C4.82129 66.5267 4.619 66.4931 4.45042 66.4595L3.06806 65.8211C2.89948 65.6867 2.7309 65.5523 2.56232 65.4179C2.46118 65.3171 2.36003 65.2163 2.32631 65.0819C2.2926 65.0147 2.2926 64.9475 2.32631 64.8467C2.39374 64.6451 2.66347 64.5443 2.89948 64.5443C3.13549 64.5443 3.37151 64.6115 3.60752 64.6115C3.91096 64.6115 4.11326 64.4771 4.31555 64.3091C4.58528 64.0403 4.75386 63.6707 4.88872 63.4355C5.22588 62.8979 5.49561 62.3603 5.76534 61.7892C6.47337 60.378 7.14769 58.9668 7.85572 57.6228C9.37294 54.7669 10.7553 51.8438 12.1039 48.887C12.8794 47.2406 13.5537 45.5271 14.2955 43.8807C15.1384 42.0328 16.1836 40.4536 16.8242 38.5048C16.8579 38.3704 16.9253 38.236 16.959 38.1016C17.195 37.5304 17.5322 36.9592 18.0716 36.6569C18.4425 36.4553 18.8808 36.4217 19.3191 36.3881C20.1958 36.3209 21.0387 36.2537 21.9153 36.1865C22.4547 36.1529 22.9605 36.1193 23.4999 36.0857C23.9045 36.0521 24.3428 36.0521 24.6463 36.2873C24.9497 36.5225 25.0508 36.9257 25.1183 37.2952C25.4554 38.6728 26.1972 40.0168 26.0623 41.4616Z" fill="#804426"/>
<path d="M3.6413 66.9299C3.94474 67.0643 4.2819 67.2323 4.58534 67.4003C5.22594 67.7363 7.04661 65.4179 7.78836 65.2499C8.53011 65.0819 6.406 68.341 6.406 68.341L6.94546 68.6098C6.94546 68.6098 9.13699 65.2835 10.2833 64.2083C10.9914 63.5363 10.6879 62.1924 10.2833 61.5204C9.23814 62.7972 5.46196 66.2243 4.04589 65.4851C3.80988 65.3507 3.50643 64.5443 3.50643 64.5443C2.73097 64.4435 0.202272 64.0739 -0.0337398 64.6115C-0.236035 65.0819 0.573147 65.4851 0.977738 65.6867C1.34861 65.8547 1.68577 66.0227 2.02293 66.1907L3.6413 66.9299Z" fill="white"/>
<path d="M26.0624 41.4616C26.0287 41.7976 26.0624 42.3016 25.7253 42.5032C25.523 42.604 25.287 42.604 25.0847 42.604C24.3092 42.604 22.8594 42.6376 22.0502 42.6376C21.8479 42.6376 21.6119 42.6376 21.4096 42.7048C20.9039 42.9064 20.9039 43.5783 20.8027 44.0487C20.6679 44.6535 20.533 45.2583 20.3307 45.8631C20.1284 46.5687 20.0273 47.3751 19.7238 48.0471C19.6901 48.1479 19.6227 48.2487 19.5553 48.3494C19.1507 49.055 18.6449 49.6934 18.1392 50.2982C17.9032 50.6006 17.6672 50.8694 17.4312 51.1718C17.4312 50.9366 17.4312 50.735 17.4312 50.4998C17.4649 48.551 17.6672 46.6359 17.802 44.7207C17.8357 44.2503 17.8695 43.7799 17.9032 43.3432C17.9369 42.9736 17.9706 42.604 18.0043 42.2008C18.038 41.6296 18.038 40.9576 18.4426 40.5208C18.9147 40.0168 19.5553 40.0168 20.1959 39.9832C21.5782 39.916 22.9943 39.9496 24.3766 40.1176C24.0395 38.5048 23.1966 37.0265 21.9154 36.1529C22.4548 36.1193 22.9606 36.0857 23.5 36.0521C23.9046 36.0185 24.3429 36.0185 24.6464 36.2537C24.9498 36.4889 25.051 36.8921 25.1184 37.2617C25.4555 38.6728 26.1973 40.0168 26.0624 41.4616Z" fill="#222221"/>
<path d="M27.8832 46.2327C27.8495 46.4343 27.8158 46.6359 27.7147 46.7703C27.5124 47.039 27.1415 47.039 26.8043 47.039C26.5683 47.039 26.1637 46.9719 25.7929 46.9719C25.2197 46.9719 24.6465 47.0054 24.3094 47.2742C24.2419 47.3414 24.2082 47.375 24.1408 47.4758C24.0059 47.6774 24.0396 47.9462 24.0733 48.215C24.1745 49.1894 24.3768 50.1638 24.4779 51.1382C24.5454 51.9445 24.7814 52.7845 24.7477 53.6245C24.7477 53.7589 24.7477 53.8933 24.7139 54.0277C24.6128 54.9013 24.4105 55.7749 24.1745 56.6149C23.871 57.7908 23.5339 59.0004 23.163 60.21C22.7921 61.5204 22.3875 62.8307 22.0167 64.2083C21.6795 65.3843 21.3424 66.5939 21.0726 67.837C20.9715 68.3074 20.8703 68.7778 20.8029 69.2482C20.7355 69.7186 20.7355 70.2226 20.904 70.7266C21.0052 70.9954 21.1401 71.1634 21.3086 71.365C21.3424 71.4322 21.4098 71.4658 21.4435 71.4994C21.4772 71.533 21.5109 71.5666 21.5447 71.6002C21.8481 71.9026 22.0504 72.3057 22.1178 72.6753C22.219 73.2129 22.1178 73.7169 21.8818 74.1201C21.6121 74.6577 21.1401 74.9265 20.7692 75.3633C20.3983 75.7665 20.1623 76.3041 19.96 76.8081C19.96 76.8081 19.96 76.8081 19.96 76.8417C19.96 76.8753 19.9263 76.9089 19.9263 76.9089C19.8251 77.1104 19.7577 77.312 19.6566 77.5136C19.6566 77.5136 19.6566 77.5136 19.6566 77.5472C19.5554 77.7488 19.4205 77.9504 19.2857 78.152C19.016 78.5216 18.7462 78.6224 18.3079 78.7232C18.1393 78.7904 17.937 78.824 17.7685 78.8576L16.2512 78.824C16.049 78.7904 15.8467 78.7232 15.6444 78.6224C15.5095 78.5888 15.3746 78.488 15.3072 78.3872C15.2398 78.32 15.2398 78.2528 15.2061 78.152C15.2061 77.9168 15.4084 77.6816 15.6444 77.5808C15.8467 77.48 16.0152 77.4464 16.2175 77.3792C16.2175 77.3792 16.2175 77.3792 16.2512 77.3792C16.285 77.3792 16.3187 77.3456 16.3524 77.3456C16.6221 77.2112 16.7907 76.9761 16.8581 76.7073C16.993 76.3377 17.0267 75.9009 17.0604 75.5649C17.1616 74.8593 17.1953 74.1873 17.2627 73.5153C17.3639 71.7682 17.4313 70.0546 17.5662 68.4082C17.8359 64.8467 18.0045 61.2852 18.1056 57.7236C18.1731 55.7077 18.1393 53.6917 18.2068 51.6758C18.2405 49.7606 18.4765 47.8454 18.6451 45.9303L18.7799 44.5527C18.8137 44.1831 18.8474 43.8135 18.8811 43.4439C18.9485 42.8727 18.9148 42.2007 19.3531 41.764C19.8251 41.26 20.4657 41.26 21.1063 41.2264C22.6573 41.1256 24.2419 41.1928 25.7591 41.3944C25.9952 41.428 26.2312 41.4616 26.5009 41.4952C26.7369 41.5288 26.9392 41.5624 27.1415 41.6968C27.6135 41.9991 27.7484 43.2423 27.8495 43.7799C27.9507 44.5863 27.9844 45.4263 27.8832 46.2327Z" fill="#995C3D"/>
<path d="M17.1952 79.7312C17.5323 79.7312 17.9032 79.7648 18.2404 79.7984C18.9821 79.8656 19.7576 76.7073 20.3982 76.2369C21.0388 75.7665 20.3308 79.9664 20.3308 79.9664L20.9376 80C20.9376 80 21.6794 75.6657 22.32 74.0865C22.7246 73.1122 21.9154 71.869 21.3085 71.365C20.8365 73.1122 18.6787 78.2529 17.094 78.1185C16.8243 78.0849 16.2174 77.3793 16.2511 77.3793C15.5094 77.6145 13.0144 78.3201 13.0144 79.0256C13.0144 79.5968 13.891 79.6304 14.363 79.664C14.7676 79.664 15.1385 79.6976 15.5094 79.6976L17.1952 79.7312Z" fill="white"/>
<path d="M43.9317 45.0231C42.7517 46.8711 40.7624 47.879 38.6046 48.0806C37.2223 48.215 35.9073 47.8454 34.525 47.7446C31.5917 47.5094 28.6921 47.2407 25.7589 47.0055C25.7589 47.0055 25.7589 47.0055 25.7589 46.9719C25.7926 46.8375 25.7926 46.7031 25.8263 46.6023C26.0623 44.9223 26.1297 43.2423 25.7926 41.596C25.7926 41.5288 25.7589 41.4616 25.7589 41.3944C25.2531 39.2104 23.9382 37.1273 21.9827 36.1193C25.2868 35.9177 28.5573 35.6825 31.8614 35.4809C31.9626 35.4809 32.0637 35.4809 32.1312 35.4473C32.1986 35.4473 32.266 35.4137 32.3335 35.3465C32.6369 35.1449 32.5358 34.7081 32.4346 34.3385C32.2997 33.9017 32.1312 33.4649 31.9626 33.0281C31.7603 32.5241 31.6929 31.9866 31.4231 31.5162H31.4568C34.8622 31.3818 38.3349 31.617 41.6728 32.1882C41.6728 32.2218 41.7065 32.2554 41.7065 32.289C41.9762 32.9273 42.2459 33.5657 42.5494 34.2041C43.3248 35.8505 44.2015 37.6312 44.6398 39.4456C45.1118 41.3608 45.0444 43.2423 43.9317 45.0231Z" fill="#E8505B"/>
<path d="M41.7066 32.3562C41.7066 32.3226 41.6729 32.289 41.6729 32.2554C38.335 31.6842 34.8285 31.449 31.4232 31.5834C31.2209 31.0122 31.0861 30.441 30.85 29.8362C30.2094 28.2234 28.5911 27.3499 27.883 25.7707C27.4447 24.8299 27.5122 23.7211 27.6133 22.6796C27.8493 20.7308 28.4562 18.8492 29.0294 16.9677C29.2654 16.2285 29.7711 15.5565 30.4117 15.1533C31.0861 14.7165 31.8952 14.1117 32.637 13.8765C33.7496 13.5069 34.9297 14.1789 35.84 14.7501C36.8852 15.3885 37.7281 15.9597 38.4361 17.0013C39.1105 17.9757 39.5488 19.118 39.9871 20.2268C40.6277 21.8732 41.2346 23.5531 41.5043 25.3339C41.6391 26.2075 41.6729 27.1147 41.5717 27.9883C41.4706 28.8618 41.3357 29.7018 41.4369 30.5754C41.538 31.1466 41.6729 31.7514 41.7066 32.3562Z" fill="white"/>
<path d="M43.9316 45.0231C42.7516 46.8711 40.7623 47.8791 38.6045 48.0806C37.2222 48.215 35.9072 47.8455 34.5249 47.7447C31.5916 47.5095 28.692 47.2407 25.7588 47.0055C25.7588 47.0055 25.7588 47.0055 25.7588 46.9719C25.1856 46.9719 24.6124 47.0055 24.2752 47.2743C23.6346 47.0727 23.0278 46.8039 22.522 46.3671C22.4883 46.3335 22.522 46.2999 22.5557 46.2999C23.6346 46.1319 24.7136 46.4343 25.7925 46.5687C25.8599 46.5687 25.961 46.6023 26.0285 46.6023C26.5679 46.6695 27.1074 46.7031 27.6468 46.7367C28.2874 46.8039 28.928 46.8375 29.5686 46.8711C31.9625 46.9719 34.3563 47.0055 36.7501 46.8375C38.9754 46.6695 41.4704 46.4007 42.9202 44.4855C44.0665 42.9735 44.1339 41.1592 44.606 39.4456C45.1117 41.3608 45.0443 43.2423 43.9316 45.0231Z" fill="#222221"/>
<path d="M35.1657 15.9597C35.132 16.1613 35.132 16.3293 35.0983 16.5309C35.0645 16.6653 34.6937 18.1436 34.7274 18.1436C33.581 18.0092 32.5696 18.614 31.693 19.286C31.4907 19.454 31.0524 19.9916 30.7826 19.7564C30.7152 19.6892 30.6478 19.5884 30.5803 19.4876C30.2095 18.8828 29.5688 18.614 28.8945 18.5132C29.0631 18.2108 29.198 17.942 29.2991 17.5725C29.434 17.1693 29.5688 16.7997 29.7374 16.3965C29.8723 16.1277 30.0072 15.8253 30.142 15.5565C30.2769 15.3549 30.4117 15.2877 30.5803 15.1197C30.5803 15.1533 30.614 15.1869 30.614 15.2541C30.6478 15.5565 30.5466 15.8589 30.5129 16.1613C30.4792 16.5309 30.4455 16.8669 30.4792 17.2365C30.5129 17.942 30.6478 18.6476 30.8838 19.3196C30.9175 19.3868 30.9512 19.454 30.9849 19.5212L31.0186 19.5548C31.0861 19.5884 31.1872 19.5212 31.2546 19.454C31.3895 19.3196 31.4907 19.118 31.5581 19.0508C31.7604 18.782 31.9964 18.4796 32.1987 18.1772C32.6033 17.6061 33.0079 17.0013 33.3788 16.3965C33.581 16.0605 33.8508 15.6909 33.9182 15.2877C33.9856 15.0525 33.9856 14.7837 33.9856 14.5485C33.9856 14.4141 33.9856 14.2797 33.9519 14.1453C33.9519 14.0445 33.9182 13.9437 33.8508 13.8429V13.8093C34.0531 13.8093 34.2216 13.9101 34.3902 14.0109C34.5588 14.1117 34.7274 14.2125 34.896 14.3469L34.9297 14.3805L34.9634 14.4141C35.132 14.6157 35.1657 14.8173 35.1994 15.0861C35.2668 15.4221 35.1994 15.6909 35.1657 15.9597Z" fill="#B8D6E6"/>
<path d="M31.6255 26.2411C30.2769 24.2923 30.142 22.6124 30.85 20.3612C30.85 20.3276 30.8163 20.3276 30.8163 20.3612C30.2431 21.8396 29.8048 23.4523 30.4117 24.9979C30.7826 25.9387 31.5243 26.6443 32.0638 27.4843C32.6707 28.425 33.1764 29.5002 33.4799 30.5754H33.5136C33.1764 28.8954 32.6033 27.6523 31.6255 26.2411Z" fill="#B8D6E6"/>
<path d="M32.3334 36.2873C32.4008 36.0857 32.5694 36.0857 32.8054 35.9513C35.9073 34.2713 38.672 31.9194 41.7738 30.105C40.7287 28.7946 39.3463 25.3339 39.144 24.8635C37.9302 21.7724 37.3571 19.9244 36.649 17.1693C36.5479 16.7325 36.4467 16.3965 36.7502 16.0269C37.0536 15.6909 37.5931 15.7917 37.9977 15.9597C39.38 16.5981 40.4252 17.774 41.2344 19.0508C42.0436 20.3276 42.819 21.47 43.4596 22.8139C44.1002 24.1579 44.6397 25.4347 45.078 26.9131C45.4489 28.1562 46.1569 29.8026 45.8198 31.113C45.4826 32.4234 43.8979 32.6921 42.9539 33.1961C41.403 34.0361 40.088 34.7753 38.6045 35.6153C37.6942 36.1193 36.8176 36.5561 35.8061 36.9593C34.9295 37.3289 33.8169 37.5977 32.9403 37.2617C32.4345 37.0937 32.1311 36.7913 32.3334 36.2873Z" fill="#995C3D"/>
<path d="M33.9181 36.3545C34.4576 36.6569 35.5702 37.2617 34.5925 37.7993C34.289 37.9673 33.8507 37.8665 33.4798 37.8329C33.109 37.7993 32.7044 37.6649 32.3672 37.6985C31.5243 37.7993 31.086 38.5049 30.2768 38.74C29.7037 38.908 29.0631 38.6728 28.5573 38.3705C28.0516 38.0681 27.7144 37.5977 27.3435 37.1945C27.175 36.9929 27.0064 36.7241 27.0738 36.4889C27.1412 36.2537 27.2761 36.1865 27.411 36.0857C28.2202 35.5145 29.0631 34.9769 30.0071 34.6745C30.3443 34.5737 30.614 34.4729 30.9849 34.5401C31.7266 34.6745 32.1312 35.1113 32.7718 35.6489C33.0078 35.8169 33.581 36.1865 33.9181 36.3545Z" fill="#995C3D"/>
<path d="M34.0194 14.5821C34.0194 14.8509 33.9857 15.0861 33.952 15.3213C33.8508 15.7245 33.6148 16.0941 33.4125 16.4301C33.0417 17.0348 32.6371 17.6396 32.2325 18.2108C32.0302 18.5132 31.7942 18.782 31.5919 19.0844C31.5244 19.1516 31.4233 19.3532 31.2884 19.4876C31.221 19.5548 31.1199 19.5884 31.0524 19.5884C31.0524 19.5884 31.0187 19.5884 31.0187 19.5548C30.9513 19.4876 30.9176 19.4204 30.9176 19.3532C30.6815 18.6812 30.5467 17.9756 30.513 17.27C30.513 16.9004 30.513 16.5645 30.5467 16.1949C30.5804 15.8925 30.6815 15.5901 30.6478 15.2877C30.6815 15.2541 30.6815 15.2205 30.6815 15.2205C30.6815 15.1197 30.6478 15.0189 30.6141 14.9181C30.6141 14.8845 30.5804 14.8173 30.5804 14.7837C30.5467 14.6829 30.513 14.5821 30.4793 14.5149C30.3107 14.1117 30.0409 13.7421 29.9061 13.3053C29.7375 12.7677 29.9398 11.8941 30.2432 11.3566C30.5467 10.8526 31.0187 10.4494 31.5244 10.2478C31.7942 10.147 32.1313 9.91179 32.3673 10.0462C32.4011 10.0798 32.4685 10.147 32.5022 10.2814C32.5696 10.4158 32.6034 10.5838 32.6708 10.7854V10.819C32.9068 11.5918 33.5474 13.3389 33.9183 13.9101C33.952 14.0109 34.0194 14.1117 34.0194 14.2125C33.9857 14.3133 34.0194 14.4477 34.0194 14.5821Z" fill="#995C3D"/>
<path d="M32.4348 10.2478C32.3674 10.5166 32.2999 10.7854 32.2325 11.0206C31.9628 11.8605 31.693 12.8013 31.2547 13.6077C31.0862 14.0445 30.8502 14.4477 30.5467 14.7837C30.513 14.6829 30.4793 14.5821 30.4456 14.5149C30.277 14.1117 30.0073 13.7421 29.8724 13.3053C29.7038 12.7677 29.9061 11.8941 30.2095 11.3566C30.513 10.8526 30.985 10.4494 31.4908 10.2478C31.7605 10.147 32.0976 9.91179 32.3337 10.0462C32.3337 10.0126 32.4011 10.1134 32.4348 10.2478Z" fill="#222221"/>
<path d="M32.0977 9.74383C31.9965 10.147 31.8954 10.5502 31.7605 10.9198C31.5245 11.5918 31.2548 12.331 30.8839 12.9694C30.5805 13.675 30.041 14.2461 29.3667 14.4477C26.8717 15.6573 25.0848 11.995 24.3093 10.1134C23.4664 8.13107 23.2641 5.34232 24.7139 3.56156C24.8487 3.35996 25.0173 3.22556 25.1859 3.09117C27.0066 1.5792 29.569 2.51998 31.0188 4.30074C31.4908 4.87193 31.8617 5.54392 32.064 6.2159C32.1314 6.3839 32.1651 6.5519 32.1988 6.71989C32.4011 7.72787 32.3337 8.73585 32.0977 9.74383Z" fill="#995C3D"/>
<path d="M32.0976 9.74385C31.6256 9.74385 31.221 8.93746 31.1198 8.53427C30.985 8.03028 30.8501 7.2239 31.1535 6.71991C31.3558 6.38391 31.693 6.18232 32.0302 6.21592C32.0976 6.38391 32.1313 6.55191 32.165 6.71991C32.401 7.72789 32.3336 8.73587 32.0976 9.74385Z" fill="#222221"/>
<path d="M32.9406 7.25751C33.3789 7.7615 33.48 8.50069 33.3115 9.10548C33.2103 9.54227 32.7383 10.3151 32.2326 10.3487C31.7268 10.3823 31.3559 9.54227 31.2548 9.13908C31.1199 8.63509 31.0188 7.8287 31.2885 7.32471C31.6257 6.75352 32.3337 6.61913 32.8394 7.12312C32.8732 7.15672 32.9069 7.19032 32.9406 7.25751Z" fill="#995C3D"/>
<path d="M32.3336 9.47504C31.9291 9.44144 31.8616 10.0798 32.2662 10.1134C32.7045 10.147 32.7382 9.50863 32.3336 9.47504Z" fill="white"/>
<path d="M32.6371 8.87025C32.6371 8.76945 32.4348 8.76945 32.3674 8.76945C32.2325 8.76945 32.1314 8.80305 31.9965 8.87025C32.0977 8.43346 32.3 8.03027 32.8057 7.86227V7.82867C32.536 7.76147 32.2325 7.96307 32.0639 8.16467C31.7942 8.46706 31.7942 8.93745 31.7605 9.30704C31.7605 9.44144 31.9291 9.44144 31.9628 9.34064C31.9965 9.20624 32.0977 9.07185 32.2325 8.97105C32.3337 8.87025 32.4685 8.83665 32.6371 8.87025Z" fill="#222221"/>
<path d="M26.0623 10.9534C25.9275 11.0542 25.7252 11.0206 25.624 10.9198C25.388 10.7182 25.2194 10.315 25.2194 10.0126V9.97899C25.152 10.0126 25.0846 10.0126 25.0509 10.0126C24.8823 10.0126 24.7811 9.87819 24.68 9.74379C24.6463 9.74379 24.68 9.71019 24.7137 9.71019C24.8486 9.84459 25.1183 9.81099 25.2869 9.71019C25.3206 9.67659 25.3206 9.64299 25.388 9.60939C25.4892 9.5422 25.624 9.5422 25.7252 9.64299C25.8938 9.77739 26.0623 10.0798 26.1298 10.2142C26.1298 10.4158 26.2309 10.7854 26.0623 10.9534Z" fill="#222221"/>
<path d="M27.7482 12.1293C27.7482 11.9949 27.5796 11.9277 27.5122 11.8605C27.4448 11.8269 27.4111 11.7933 27.3436 11.7597C27.2762 11.7261 27.2088 11.6925 27.1076 11.6589C27.0739 11.6589 27.0739 11.6589 27.0739 11.6253C27.0739 11.5917 27.0739 11.5918 27.0739 11.5582C27.1413 11.4574 27.1751 11.323 27.2088 11.2222C27.2425 11.1214 27.2425 10.987 27.2762 10.8526C27.3436 10.2814 27.3099 9.64299 27.0065 9.139C26.9053 8.971 26.703 8.66861 26.5007 8.63501C26.5682 8.9374 26.8716 9.139 27.0065 9.40779C27.2762 10.0126 27.1413 10.7518 26.8042 11.2894C26.7705 11.3566 26.703 11.4238 26.6693 11.491C26.467 12.0621 27.4785 12.0957 27.7482 12.1293Z" fill="#222221"/>
<path d="M29.3666 11.659C29.198 12.0286 29.0631 12.3982 28.7259 12.667C28.3551 12.9694 27.8831 13.171 27.411 13.2382C27.3773 13.2382 27.3773 13.2718 27.411 13.3054C27.9505 13.3726 28.4562 13.3054 28.8945 12.9358C29.2317 12.6334 29.5688 12.1966 29.5688 11.7262C29.5351 11.6254 29.4003 11.5582 29.3666 11.659Z" fill="#222221"/>
<path d="M29.6027 6.58547C29.097 6.28308 28.5912 6.18228 28.018 6.38387C27.4786 6.58547 27.0066 6.95506 27.0403 7.52625C27.0403 7.55985 27.074 7.55985 27.074 7.55985C27.4112 7.35825 27.6472 7.02226 28.018 6.85426C28.4901 6.61907 29.0632 6.55187 29.569 6.68627C29.6364 6.68627 29.6701 6.61907 29.6027 6.58547Z" fill="#E68A2E"/>
<path d="M24.1743 8.63502C24.3429 8.09743 24.5789 7.69424 24.9835 7.55984C25.3544 7.42545 25.759 7.45905 25.9613 7.99664V8.03023C25.6915 8.03023 25.4555 7.89584 25.1858 7.96304C24.8486 8.03024 24.5115 8.33263 24.2755 8.70222C24.208 8.73582 24.1743 8.70222 24.1743 8.63502Z" fill="#E68A2E"/>
<path d="M29.1981 9.81103C29.0632 9.94543 28.8609 9.87823 28.7597 9.81103C28.5237 9.60944 28.3552 9.20625 28.3552 8.90385V8.87025C28.3214 8.87025 28.254 8.87025 28.2203 8.87025C28.0517 8.87025 27.9506 8.73586 27.8494 8.60146C27.8157 8.60146 27.8494 8.56786 27.8831 8.56786C27.9843 8.70226 28.254 8.66866 28.4226 8.60146C28.4563 8.56786 28.49 8.53426 28.5237 8.53426C28.6249 8.46706 28.7597 8.46706 28.8609 8.56786C29.0295 8.70226 29.1643 9.00465 29.2318 9.13905C29.2655 9.30704 29.4003 9.64304 29.1981 9.81103Z" fill="#222221"/>
<path d="M29.9061 2.82235C29.5352 2.62076 28.2878 2.25116 28.4901 3.15835C28.5238 3.35994 28.6923 3.52794 28.8272 3.66234C28.9621 3.79673 29.1307 3.96473 29.1981 4.13273C29.333 4.50232 29.1644 4.97271 29.4004 5.3087C29.6027 5.5775 30.041 5.6111 30.2433 5.87989C30.3781 6.04789 30.3781 6.28308 30.4456 6.51828C30.6142 7.25746 31.9965 7.89585 32.6034 7.32466C32.772 7.15667 32.772 6.92147 32.7383 6.71987C32.536 5.10711 31.4571 3.69594 29.9061 2.82235Z" fill="#E68A2E"/>
<path d="M25.0847 2.68796C25.051 2.72156 25.0172 2.72156 24.9835 2.75516C24.3766 3.05755 23.8709 3.52794 23.5 4.06553C22.8594 4.97272 22.5897 6.08149 22.6234 7.19027C22.6571 8.29905 22.9606 9.37423 23.4326 10.3822C23.5675 10.6174 23.736 10.5502 23.6686 10.2814C23.6349 10.1806 23.6012 10.0462 23.6012 9.94542C23.6349 9.74382 23.9046 9.71022 24.0395 9.57582C24.3092 9.34063 24.1743 8.87024 24.3429 8.56784C24.5452 8.19825 25.0847 8.16465 25.3207 7.82866C25.5904 7.42547 25.3544 6.85428 25.6241 6.45109C25.8938 6.11509 26.467 6.11509 26.703 5.7455C26.8042 5.6111 26.8379 5.40951 26.939 5.27511C27.0739 5.10711 27.2762 5.03991 27.4785 4.97272C28.1191 4.77112 28.6923 4.50233 29.2654 4.13273C29.7375 3.83034 30.2769 3.52794 29.8386 2.88956C29.6026 2.55356 28.8946 2.35197 28.5237 2.25117C27.9842 2.11677 27.4448 2.11677 26.9053 2.18397C26.5682 2.25117 26.2647 2.38557 25.9613 2.45277C25.6578 2.45277 25.3544 2.55356 25.0847 2.68796Z" fill="#E68A2E"/>
</g>
<defs>
<clipPath id="clip0_24_288">
<rect width="47" height="80" fill="white"/>
</clipPath>
</defs>
</svg>
