<svg width="144" height="89" viewBox="0 0 144 89" fill="none" xmlns="http://www.w3.org/2000/svg">
<rect x="0.5" y="17.5" width="143" height="71" rx="7.5" stroke="#0096FF"/>
<path d="M31.1504 47.7168V46.377H38.957V47.7168H35.8398V57H34.2812V47.7168H31.1504ZM39.0117 53.1035C39.0117 51.8822 39.3444 50.9023 40.0098 50.1641C40.6842 49.4167 41.5365 49.043 42.5664 49.043C43.5964 49.043 44.4303 49.4121 45.0684 50.1504C45.7155 50.8887 46.0391 51.8411 46.0391 53.0078C46.0391 53.026 46.0254 53.2402 45.998 53.6504H40.5293C40.5293 54.2975 40.7161 54.8535 41.0898 55.3184C41.4635 55.7832 41.9831 56.0156 42.6484 56.0156C43.0951 56.0156 43.4915 55.9062 43.8379 55.6875C44.1842 55.4688 44.4486 55.1862 44.6309 54.8398L45.8887 55.2637C45.6426 55.8379 45.2415 56.3118 44.6855 56.6855C44.1387 57.0592 43.4551 57.2461 42.6348 57.2461C41.5592 57.2461 40.6842 56.8724 40.0098 56.125C39.3444 55.3685 39.0117 54.3613 39.0117 53.1035ZM40.5566 52.5703H44.5078C44.5078 51.9232 44.3346 51.3763 43.9883 50.9297C43.6419 50.4831 43.168 50.2598 42.5664 50.2598C41.9557 50.2598 41.4727 50.4876 41.1172 50.9434C40.7617 51.3991 40.5749 51.9414 40.5566 52.5703ZM47.5293 57V49.2891H48.9922V50.3691H49.0059C49.1243 50.0592 49.3796 49.763 49.7715 49.4805C50.1725 49.1888 50.6647 49.043 51.248 49.043C51.9954 49.043 52.597 49.2754 53.0527 49.7402C53.5085 50.2051 53.7363 50.9707 53.7363 52.0371V57H52.2324V52.2422C52.2324 50.9661 51.7904 50.3281 50.9062 50.3281C50.3867 50.3281 49.9447 50.5423 49.5801 50.9707C49.2246 51.39 49.0469 51.9004 49.0469 52.502V57H47.5293ZM55.1719 53.1309C55.1719 51.8639 55.4772 50.8659 56.0879 50.1367C56.7077 49.4076 57.4915 49.043 58.4395 49.043C58.9225 49.043 59.3464 49.1706 59.7109 49.4258C60.0755 49.681 60.3444 49.9727 60.5176 50.3008V46.0078H62.0215V57H60.5586V55.8789C60.3854 56.2617 60.1074 56.5853 59.7246 56.8496C59.3509 57.1139 58.9225 57.2461 58.4395 57.2461C58.0384 57.2461 57.651 57.1686 57.2773 57.0137C56.9128 56.8587 56.5664 56.6263 56.2383 56.3164C55.9193 56.0065 55.6595 55.5781 55.459 55.0312C55.2676 54.4753 55.1719 53.8418 55.1719 53.1309ZM56.7031 53.1309C56.7031 54.015 56.8809 54.7122 57.2363 55.2227C57.6009 55.724 58.0703 55.9746 58.6445 55.9746C59.1914 55.9746 59.6426 55.7194 59.998 55.209C60.3626 54.6986 60.5449 54.0059 60.5449 53.1309C60.5449 52.2832 60.3672 51.6042 60.0117 51.0938C59.6562 50.5833 59.2005 50.3281 58.6445 50.3281C58.043 50.3281 57.569 50.5833 57.2227 51.0938C56.8763 51.6042 56.7031 52.2832 56.7031 53.1309ZM63.6211 53.1035C63.6211 51.8822 63.9538 50.9023 64.6191 50.1641C65.2936 49.4167 66.1458 49.043 67.1758 49.043C68.2057 49.043 69.0397 49.4121 69.6777 50.1504C70.3249 50.8887 70.6484 51.8411 70.6484 53.0078C70.6484 53.026 70.6348 53.2402 70.6074 53.6504H65.1387C65.1387 54.2975 65.3255 54.8535 65.6992 55.3184C66.0729 55.7832 66.5924 56.0156 67.2578 56.0156C67.7044 56.0156 68.1009 55.9062 68.4473 55.6875C68.7936 55.4688 69.0579 55.1862 69.2402 54.8398L70.498 55.2637C70.252 55.8379 69.8509 56.3118 69.2949 56.6855C68.748 57.0592 68.0645 57.2461 67.2441 57.2461C66.1686 57.2461 65.2936 56.8724 64.6191 56.125C63.9538 55.3685 63.6211 54.3613 63.6211 53.1035ZM65.166 52.5703H69.1172C69.1172 51.9232 68.944 51.3763 68.5977 50.9297C68.2513 50.4831 67.7773 50.2598 67.1758 50.2598C66.5651 50.2598 66.082 50.4876 65.7266 50.9434C65.3711 51.3991 65.1842 51.9414 65.166 52.5703ZM72.1387 57V49.2891H73.5742V50.2188C73.7292 49.918 73.9753 49.6491 74.3125 49.4121C74.6497 49.166 75.0553 49.043 75.5293 49.043C75.9486 49.043 76.2904 49.1022 76.5547 49.2207V50.6016C76.2539 50.4831 75.9121 50.4238 75.5293 50.4238C74.9277 50.4238 74.4629 50.6562 74.1348 51.1211C73.8158 51.5768 73.6562 52.1875 73.6562 52.9531V57H72.1387ZM76.9102 55.4141L78.0039 54.7852C78.5599 55.6055 79.2754 56.0156 80.1504 56.0156C80.6152 56.0156 80.9889 55.9245 81.2715 55.7422C81.554 55.5508 81.6953 55.3001 81.6953 54.9902C81.6953 54.5892 81.3945 54.2611 80.793 54.0059C80.6016 53.9147 80.1686 53.7643 79.4941 53.5547C79.1751 53.4544 78.8971 53.3542 78.6602 53.2539C78.4323 53.1445 78.1953 53.0033 77.9492 52.8301C77.7122 52.6478 77.5299 52.4245 77.4023 52.1602C77.2747 51.8958 77.2109 51.5951 77.2109 51.2578C77.2109 50.5924 77.4889 50.0592 78.0449 49.6582C78.6009 49.248 79.3073 49.043 80.1641 49.043C80.793 49.043 81.3809 49.2116 81.9277 49.5488C82.4746 49.8861 82.8802 50.3008 83.1445 50.793L82.1465 51.4082C81.627 50.6517 80.9661 50.2734 80.1641 50.2734C79.6992 50.2734 79.3438 50.3691 79.0977 50.5605C78.8516 50.7428 78.7285 50.9844 78.7285 51.2852C78.7285 51.4492 78.7741 51.5996 78.8652 51.7363C78.9564 51.873 79.0475 51.9824 79.1387 52.0645C79.2389 52.1465 79.403 52.2376 79.6309 52.3379C79.8678 52.429 80.041 52.4928 80.1504 52.5293C80.2689 52.5658 80.4694 52.6296 80.752 52.7207C82.4108 53.2311 83.2402 53.9922 83.2402 55.0039C83.2402 55.6328 82.9714 56.166 82.4336 56.6035C81.8958 57.0319 81.1439 57.2461 80.1777 57.2461C79.4577 57.2461 78.8105 57.082 78.2363 56.7539C77.6621 56.4258 77.2201 55.9792 76.9102 55.4141Z" fill="black"/>
<g clip-path="url(#clip0_24_291)">
<path d="M124.181 22.3586C124.436 23.0134 124.851 23.6059 125.233 24.1984C125.903 25.1963 126.732 26.1318 127.721 26.9426C128.231 27.3791 130.687 28.4394 130.847 28.9071C129.986 26.5996 131.102 24.1049 132.601 22.1403C134.068 20.1757 135.949 18.4606 136.938 16.3402C137.895 14.2509 137.895 11.9433 137.608 9.76043C137.225 7.04747 136.364 4.3345 134.514 2.12046C132.92 0.218266 129.348 -0.686057 126.764 0.530102C124.691 1.49679 123.766 3.61727 123.766 5.55065C123.798 7.5464 124.596 9.4486 125.17 11.4132C125.776 13.4089 126.126 15.5918 125.233 17.5875C124.723 18.7101 124.022 20.0198 123.99 21.2984C123.99 21.6726 124.053 22.0156 124.181 22.3586Z" fill="#660A0A"/>
<path d="M118.855 27.7222C120.705 28.5018 122.618 29.2814 124.468 30.0922C124.851 30.2481 125.234 30.404 125.648 30.3728C125.68 30.3728 125.68 30.3728 125.68 30.3728C126.35 30.2793 126.765 29.5932 126.988 28.9695C127.179 28.3771 127.434 27.8469 127.658 27.2856C127.913 26.7243 127.945 26.0071 128.008 25.4146C128.168 24.0425 128.168 22.6705 128.072 21.3296C127.976 20.1758 127.817 18.9908 127.53 17.8682C127.371 17.2133 127.211 16.5897 126.956 15.966C126.828 15.6854 126.765 14.9369 126.382 15.0305C125.808 15.1552 125.361 15.7477 125.042 16.5897C123.926 19.4897 124.022 25.6329 123.958 27.2545C123.958 26.9738 119.142 25.5705 118.759 25.477C118.058 25.3211 117.069 24.9781 116.367 25.0716C116.208 25.1028 116.08 25.134 115.953 25.1652C114.613 25.6329 118.409 27.5663 118.855 27.7222Z" fill="#E69973"/>
<path d="M125.042 16.5897C125.074 17.1822 125.202 19.2715 125.297 21.7038C125.457 24.7598 125.616 28.3771 125.616 30.3728C125.648 30.3728 125.648 30.3728 125.648 30.3728C126.318 30.2793 126.733 29.5932 126.956 28.9695C127.147 28.3771 127.402 27.8469 127.626 27.2856C127.881 26.7243 127.913 26.0071 127.976 25.4146C128.136 24.0425 128.136 22.6705 128.04 21.3296C127.944 20.1758 127.785 18.9908 127.498 17.8682C127.339 17.2133 127.179 16.5897 126.924 15.966C126.796 15.6854 126.733 14.9369 126.35 15.0305C125.808 15.1552 125.393 15.7165 125.042 16.5897Z" fill="#222221"/>
<path d="M130.879 56.7852C130.879 56.9723 130.911 57.1282 130.942 57.2529C131.07 58.2196 131.357 58.4691 132.123 60.4025C133.016 62.7412 134.514 74.8405 134.802 77.99C134.961 79.5492 135.152 81.1395 135.344 82.8235C135.407 83.4471 135.471 84.102 135.503 84.788C135.503 85.0998 135.567 85.5364 135.503 85.9106C135.471 86.1913 135.376 86.4096 135.152 86.5655C134.961 86.6902 134.77 86.7526 134.578 86.8773C134.387 87.002 134.259 87.2515 134.291 87.4698C134.323 87.5634 134.355 87.6257 134.387 87.6881C134.483 87.7816 134.61 87.844 134.706 87.8752C134.897 87.9375 135.089 87.9999 135.28 88.0311L136.619 87.9687C136.779 87.9376 136.938 87.8752 137.066 87.8128C137.417 87.6569 137.64 87.5634 137.831 87.1891C138.023 86.8149 138.118 86.3784 138.214 85.973C138.31 85.4429 138.437 84.8816 138.724 84.445C139.011 83.8837 139.362 83.5719 139.522 83.0729C139.649 82.6675 139.649 82.1686 139.458 81.6697C139.33 81.3266 139.075 80.9524 138.756 80.703C138.724 80.6718 138.692 80.6406 138.629 80.6094C138.374 80.3911 138.182 80.204 138.023 79.9234C137.768 79.4556 137.704 78.9879 137.672 78.5513C137.64 78.1147 137.64 77.647 137.672 77.2416C137.704 76.0566 137.799 74.934 137.895 73.8426C137.991 72.5641 138.118 71.3479 138.214 70.1629C138.31 69.0403 138.405 67.9489 138.469 66.8886C138.501 66.1091 138.565 65.3295 138.501 64.5811C138.501 64.4563 138.469 64.3628 138.469 64.238C138.087 61.8993 136.715 60.5896 135.79 58.9992C135.535 58.5626 135.439 57.8766 135.471 57.097C135.503 55.1325 136.109 52.6689 136.109 52.6689L131.357 53.0432C131.357 53.0432 130.783 55.4443 130.879 56.7852Z" fill="#FFBE9D"/>
<path d="M131.357 53.0432C131.357 53.0432 130.783 55.4755 130.879 56.8164C130.879 57.0035 130.91 57.1594 130.942 57.2841C132.952 57.2841 134.801 57.1282 135.503 57.097C135.535 55.1324 136.141 52.6689 136.141 52.6689L131.357 53.0432Z" fill="#222221"/>
<path d="M135.344 87.9688C135.057 87.9999 134.738 87.9999 134.419 88.0311C134.036 88.0623 133.334 88.0623 133.271 87.5946C133.175 87.0021 135.089 86.4408 135.503 85.9106C135.758 86.2537 136.141 86.5343 136.332 86.5343C137.608 86.5343 138.501 82.1063 138.597 80.6406H138.629C139.585 80.8589 140 81.888 139.809 82.7299C139.522 84.1332 139.617 87.9064 139.617 87.9064H139.139C139.139 87.9064 139.043 84.2579 138.629 84.6945C138.214 85.1622 138.086 87.9064 137.48 87.9064C137.193 87.9064 136.906 87.9064 136.619 87.9376L135.344 87.9688Z" fill="#E8505B"/>
<path d="M127.275 84.7569C127.275 85.0687 127.275 85.5053 127.211 85.8795C127.147 86.1602 127.02 86.3784 126.796 86.5344C126.605 86.6591 126.414 86.7215 126.222 86.8462C126.031 86.9709 125.872 87.2204 125.903 87.4387C125.903 87.5322 125.935 87.5946 125.999 87.657C126.095 87.7505 126.19 87.8129 126.318 87.8441C126.509 87.9064 126.701 87.9688 126.892 88L128.232 87.9376C128.391 87.9064 128.551 87.8441 128.71 87.7817C129.093 87.6258 129.284 87.5322 129.507 87.158C129.731 86.7838 129.858 86.3473 129.986 85.9419C130.145 85.4118 130.273 84.8505 130.592 84.4139C130.879 83.9773 131.261 83.6655 131.453 83.1354C131.612 82.73 131.676 82.231 131.517 81.7321C131.421 81.3891 131.198 81.0149 130.911 80.7654C130.879 80.7342 130.847 80.703 130.815 80.6719C130.592 80.4536 130.4 80.2665 130.241 79.9858C130.018 79.5181 129.986 79.0503 129.986 78.6137C129.986 78.1772 130.05 77.7094 130.081 77.304C130.209 76.1191 130.368 74.9964 130.56 73.905C130.751 72.6265 130.974 71.4103 131.166 70.2254C131.357 69.1028 131.549 68.0113 131.676 66.9511C131.772 66.1715 131.867 65.3919 131.867 64.6435C131.867 64.5188 131.867 64.4252 131.867 64.3005C131.676 61.9617 130.4 60.652 129.571 59.0617C129.38 58.6563 129.316 58.0326 129.38 57.3466C129.507 55.382 130.368 52.7626 130.368 52.7626L125.585 53.1368C125.585 53.1368 124.979 55.0702 124.851 56.4734C124.819 56.6293 124.819 56.7853 124.819 56.91C124.819 58.3132 125.074 58.3132 125.744 60.5273C126.478 62.866 127.02 74.9653 127.083 78.1148C127.115 79.674 127.211 81.2643 127.275 82.9483C127.275 83.4472 127.307 84.102 127.275 84.7569Z" fill="#E69973"/>
<path d="M124.819 56.3487C125.776 56.91 127.53 57.1594 129.348 57.2218C129.476 55.2572 130.337 52.6378 130.337 52.6378L125.553 53.012C125.553 53.0432 124.947 54.9766 124.819 56.3487Z" fill="#222221"/>
<path d="M126.86 87.9688C126.573 87.9999 126.254 87.9999 125.935 88.0311C125.553 88.0623 124.851 88.0623 124.819 87.5946C124.787 87.0021 126.701 86.4408 127.211 85.9106C127.434 86.2537 127.785 86.5343 128.008 86.5343C129.284 86.5343 130.528 82.1063 130.751 80.6406H130.783C131.708 80.8589 132.059 81.888 131.804 82.7299C131.421 84.1332 131.23 87.9064 131.23 87.9064H130.751C130.751 87.9064 130.943 84.2579 130.496 84.6945C130.05 85.1622 129.699 87.9064 129.093 87.9064C128.806 87.9064 128.519 87.9064 128.232 87.9376L126.86 87.9688Z" fill="#E8505B"/>
<path d="M116.622 27.3169C116.686 27.3481 116.718 27.3792 116.782 27.4104C117.611 27.8158 119.046 27.4416 120.003 27.4104C120.641 27.3792 125.042 27.7534 124.723 26.5996C124.309 25.0405 123.256 23.6684 122.523 22.3587C121.534 20.4565 120.545 18.6167 119.588 16.8392C119.365 16.4026 119.11 15.9661 118.632 15.7478C118.281 15.5919 117.802 15.5607 117.388 15.5607C116.112 15.5607 114.836 15.5607 113.529 15.5919C112.317 15.623 111.201 15.7478 109.925 15.9349C108.171 16.1843 109.415 17.4317 109.861 18.0554C110.435 18.9285 111.041 19.8016 111.647 20.6748C112.859 22.4522 114.135 24.2297 115.474 26.0695C115.761 26.5685 116.144 27.0362 116.622 27.3169Z" fill="white"/>
<path d="M113.178 25.1652C113.592 25.6641 114.007 25.9448 114.709 25.8824C115.602 25.82 116.335 25.5706 116.208 24.5727C116.144 24.1049 115.921 23.6372 115.666 23.1694C115.538 22.9511 115.41 22.6705 115.155 22.5769C114.996 22.5146 114.804 22.5146 114.645 22.5458C113.848 22.6393 112.987 22.6393 112.731 23.5748C112.572 24.1049 112.763 24.6662 113.082 25.0716C113.114 25.0716 113.146 25.1028 113.178 25.1652Z" fill="#FFBE9D"/>
<path d="M124.596 55.382C126.828 57.1283 135.758 56.224 135.758 56.224C137.13 49.6131 139.075 45.0915 138.182 38.6676C137.991 37.3579 136.619 34.2708 135.726 32.0879C135.312 31.09 134.993 30.2481 134.993 29.8739C134.993 29.8115 134.993 29.7803 134.993 29.718C134.993 29.718 135.089 29.4373 135.248 28.9384C135.471 28.2523 135.822 27.2233 136.237 26.0071C136.237 25.9759 136.269 25.9759 136.269 25.9447C137.321 22.7952 138.724 18.6166 139.107 17.4628C139.171 17.2757 139.203 17.151 139.203 17.151C139.235 17.0263 139.267 16.9327 139.267 16.808C139.33 16.1219 138.916 15.4671 138.214 15.1552L132.92 12.8477L126.669 14.8122C125.935 15.0305 125.457 15.6542 125.457 16.3402C125.457 16.3402 125.584 18.3983 125.712 20.9242C125.744 21.6726 125.776 22.4522 125.808 23.2318C125.84 23.9178 125.871 24.6039 125.903 25.2587C125.903 25.5705 125.935 25.8824 125.935 26.1942C125.967 27.0674 125.999 27.8158 125.999 28.4082C125.999 28.5018 125.999 28.5642 125.999 28.6265C123.83 38.1999 125.074 45.4968 124.596 55.382Z" fill="#263238"/>
<path d="M123.224 23.6996C123.384 23.6684 123.575 23.6996 123.798 23.7931C127.02 25.0093 130.305 26.2255 133.558 27.5352C133.43 27.504 134.961 22.6705 135.089 22.3275C135.79 20.1447 136.364 17.9618 137.353 15.9661C137.512 15.6542 137.704 15.28 138.086 15.2488C138.501 15.1865 138.884 15.5295 139.107 15.8725C139.904 17.0263 140.032 18.4608 140 19.7705C139.968 21.0802 139.904 22.3899 139.585 23.6996C139.266 25.0093 138.788 26.319 138.15 27.5352C137.608 28.5642 136.843 30.2481 135.758 30.8718C134.738 31.4643 133.143 30.56 132.186 30.1546C130.623 29.5309 129.061 28.8761 127.594 28.1277C126.669 27.6599 125.808 27.1298 124.978 26.5373C124.245 26.0384 123.32 25.4459 122.969 24.6351C122.714 24.1985 122.842 23.7931 123.224 23.6996Z" fill="#FFBE9D"/>
<path d="M123.99 23.9491C124.404 24.7286 124.691 25.5394 123.703 25.3523C123.384 25.2899 123.097 25.0717 122.842 24.8846C122.587 24.6975 122.3 24.4792 121.981 24.3856C121.215 24.1673 120.514 24.7286 119.748 24.6663C119.174 24.6351 118.664 24.2609 118.377 23.8243C118.058 23.3878 117.898 22.92 117.739 22.4211C117.675 22.2028 117.611 21.9221 117.771 21.735C117.866 21.6103 118.058 21.5791 118.217 21.5479C119.174 21.3608 120.163 21.2361 121.151 21.2361C121.502 21.2361 121.885 21.2673 122.204 21.392C122.842 21.6727 123.193 22.2963 123.416 22.8888C123.48 23.0759 123.735 23.5125 123.99 23.9491Z" fill="#FFBE9D"/>
<path d="M125.935 26.2253C125.967 27.0985 125.999 27.8469 125.999 28.4394C126.158 28.5329 126.35 28.6577 126.509 28.7512C127.37 29.2813 128.263 29.7179 129.22 30.1233C130.368 30.6222 131.548 31.0276 132.728 31.4018C133.271 31.5889 133.813 31.7136 134.355 31.8696C134.77 32.0255 135.152 32.2126 135.631 32.0879C135.663 32.0879 135.694 32.0567 135.726 32.0567C135.312 31.0588 134.993 30.2168 134.993 29.8426C134.993 29.7803 134.993 29.7491 134.993 29.6867C134.993 29.6867 135.088 29.4061 135.248 28.9071C132.122 28.0028 129.029 27.1297 125.935 26.2253Z" fill="#222221"/>
<path d="M133.494 13.6896C133.59 13.939 133.653 14.1885 133.622 14.5004C133.558 14.9993 133.303 15.467 133.016 15.9036C132.059 17.4004 130.815 18.7101 129.316 19.7392C129.22 19.8016 129.125 19.8639 129.029 19.8639C128.87 19.8327 128.806 19.6456 128.774 19.4897C128.614 18.4295 128.646 17.3381 128.87 16.2778C129.061 15.3735 129.603 14.5315 129.794 13.6584C129.826 13.6272 129.826 13.6272 129.826 13.596C129.858 13.5025 129.858 13.4089 129.858 13.3154C129.858 13.2842 129.858 13.2218 129.858 13.1906C129.858 13.0971 129.858 13.0035 129.826 12.9412C129.794 12.5358 129.667 12.1616 129.667 11.7562C129.667 11.2573 130.081 10.54 130.528 10.1658C130.943 9.79164 131.485 9.57335 131.995 9.54217C132.282 9.51098 132.633 9.38625 132.824 9.57335C132.856 9.60453 132.856 9.69808 132.888 9.82282C132.888 9.94755 132.92 10.1035 132.888 10.3218V10.3529C132.888 11.1013 132.888 11.8809 133.016 12.6293C133.079 12.9724 133.335 13.3154 133.494 13.6896Z" fill="#FFBE9D"/>
<path d="M132.856 9.72927C132.728 9.94755 132.601 10.1347 132.441 10.3529C131.963 11.0078 131.421 11.7562 130.815 12.3487C130.528 12.6917 130.209 12.9724 129.826 13.1906C129.826 13.0971 129.826 13.0035 129.794 12.9412C129.762 12.5358 129.635 12.1616 129.635 11.7562C129.635 11.2573 130.049 10.54 130.496 10.1658C130.91 9.79164 131.453 9.57335 131.963 9.54217C132.25 9.51098 132.601 9.38625 132.792 9.57335C132.824 9.51098 132.856 9.60453 132.856 9.72927Z" fill="#222221"/>
<path d="M128.359 1.77743C130.432 0.935469 132.505 2.36991 133.271 4.27211C133.59 5.02051 133.749 5.83129 133.653 6.64206C133.526 7.92059 132.856 9.13674 132.059 10.1658C131.644 10.6959 131.198 11.2572 130.687 11.6938C130.209 12.2239 129.539 12.5981 128.901 12.5981C126.286 13.0347 125.744 9.4174 125.584 7.60875C125.393 5.67537 125.999 3.21187 127.817 2.05808C127.976 1.93334 128.168 1.83979 128.359 1.77743Z" fill="#FFBE9D"/>
<path d="M132.569 2.86889C132.282 2.58824 131.198 1.93339 131.006 2.80653C130.911 3.2431 131.198 3.74203 131.261 4.1786C131.325 4.64636 131.293 5.14529 131.325 5.64423C131.389 6.42382 131.995 8.26365 133.398 7.63998C133.653 7.54643 133.749 7.32814 133.813 7.10986C134.227 5.58186 133.749 4.05387 132.569 2.86889Z" fill="#660A0A"/>
<path d="M128.391 1.40325C128.359 1.40325 128.327 1.40325 128.263 1.43444C127.083 1.62154 126.605 2.18284 126.031 3.11835C125.489 4.05385 125.138 5.08291 125.074 6.14315C125.074 6.33025 125.074 6.57972 125.234 6.70446C125.521 6.95393 125.967 6.70446 126.254 6.45499C127.115 5.73777 127.976 5.02055 128.965 4.45924C129.762 4.02267 130.623 3.71084 131.516 3.61729C132.091 3.55492 132.856 3.43018 132.601 2.68178C132.473 2.33876 131.899 1.99574 131.58 1.80864C131.134 1.55917 130.655 1.40325 130.145 1.34089C129.826 1.3097 129.539 1.34089 129.22 1.34089C128.965 1.34089 128.678 1.34089 128.391 1.40325Z" fill="#660A0A"/>
<path d="M129.762 7.42165C129.699 7.3281 129.603 7.29692 129.475 7.3281C129.348 7.35928 129.316 7.48402 129.316 7.60875C129.284 7.85822 129.348 8.20124 129.539 8.41952C129.635 8.51308 129.794 8.60663 129.922 8.54426C130.113 8.45071 130.081 8.13887 130.018 7.98295C129.954 7.82704 129.89 7.54638 129.762 7.42165Z" fill="#222221"/>
<path d="M126.828 7.64003C126.764 7.54648 126.669 7.5153 126.541 7.54648C126.414 7.57767 126.382 7.7024 126.382 7.82714C126.35 8.0766 126.414 8.41962 126.605 8.63791C126.701 8.73146 126.86 8.82501 126.988 8.76264C127.179 8.66909 127.147 8.35726 127.083 8.20134C127.02 8.04542 126.956 7.76477 126.828 7.64003Z" fill="#222221"/>
<path d="M128.2 10.2906C128.231 10.1971 128.104 10.1035 128.04 10.0412C128.008 10.01 127.944 9.97878 127.913 9.91642C127.849 9.85405 127.785 9.82287 127.721 9.79168L127.689 9.7605C127.689 9.72931 127.689 9.72931 127.721 9.72931C127.785 9.63576 127.849 9.5734 127.881 9.47985C127.913 9.3863 127.976 9.29274 128.008 9.19919C128.168 8.76262 128.231 8.26369 128.04 7.79593C127.976 7.64002 127.849 7.35936 127.657 7.297C127.657 7.54647 127.913 7.76475 127.976 8.01422C128.104 8.54434 127.881 9.13683 127.498 9.47985C127.434 9.51103 127.402 9.5734 127.37 9.60458C127.083 9.9476 127.976 10.1971 128.2 10.2906Z" fill="#222221"/>
<path d="M129.667 10.2594C129.443 10.5089 129.284 10.7896 128.933 10.9455C128.55 11.1014 128.104 11.1638 127.689 11.1326C127.657 11.1326 127.657 11.1638 127.689 11.1638C128.168 11.3509 128.614 11.382 129.029 11.1949C129.38 11.039 129.73 10.7272 129.826 10.3842C129.858 10.2594 129.73 10.1659 129.667 10.2594Z" fill="#222221"/>
<path d="M130.783 6.17436C130.4 5.83134 129.954 5.64424 129.443 5.67542C128.933 5.73779 128.487 5.92489 128.391 6.39264C128.391 6.39264 128.391 6.42383 128.423 6.42383C128.742 6.33028 129.029 6.11199 129.348 6.04962C129.794 5.95607 130.336 6.04962 130.751 6.23673C130.783 6.26791 130.815 6.20554 130.783 6.17436Z" fill="#660A0A"/>
<path d="M125.648 6.73565C125.871 6.33026 126.158 6.08079 126.509 6.04961C126.86 6.01843 127.179 6.14316 127.307 6.61091C127.307 6.61091 127.307 6.6421 127.275 6.6421C127.051 6.57973 126.828 6.42381 126.605 6.42381C126.286 6.39263 125.935 6.57973 125.68 6.8292C125.68 6.8292 125.616 6.79802 125.648 6.73565Z" fill="#660A0A"/>
<path d="M133.749 7.45287C133.972 7.9518 133.845 8.60666 133.526 9.04323C133.302 9.35506 132.633 9.88518 132.186 9.79163C131.74 9.69808 131.644 8.91849 131.676 8.57547C131.708 8.1389 131.835 7.45287 132.25 7.14103C132.728 6.73564 133.398 6.82919 133.717 7.35932C133.717 7.35932 133.717 7.3905 133.749 7.45287Z" fill="#FFBE9D"/>
<path d="M132.888 8.91849C132.92 8.82494 132.728 8.79376 132.665 8.76257C132.537 8.73139 132.441 8.73139 132.314 8.76257C132.505 8.38837 132.76 8.10772 133.271 8.07653V8.04535C133.015 7.92062 132.728 8.01417 132.505 8.17008C132.186 8.38837 132.059 8.76257 131.963 9.10559C131.931 9.23033 132.09 9.26151 132.154 9.16796C132.218 9.04322 132.346 8.94967 132.473 8.88731C132.633 8.85612 132.76 8.85612 132.888 8.91849Z" fill="#222221"/>
</g>
<defs>
<clipPath id="clip0_24_291">
<rect width="31" height="88" fill="white" transform="matrix(-1 0 0 1 140 0)"/>
</clipPath>
</defs>
</svg>
